<svg width="323" height="231" viewBox="0 0 323 231" fill="none" xmlns="http://www.w3.org/2000/svg">
<rect x="29" width="124" height="165" rx="3" fill="#D8E6FF" fill-opacity="0.07"/>
<path d="M290.258 221.613H268.903V221.742H290.258V221.613Z" fill="#EBEBEB"/>
<path d="M213.677 223.355H208.064V223.484H213.677V223.355Z" fill="#EBEBEB"/>
<path d="M268.258 215.613H255.871V215.742H268.258V215.613Z" fill="#EBEBEB"/>
<path d="M61.7421 216.71H33.8711V216.839H61.7421V216.71Z" fill="#EBEBEB"/>
<path d="M71.5479 216.71H67.4834V216.839H71.5479V216.71Z" fill="#EBEBEB"/>
<path d="M145.29 219.419H84.8389V219.548H145.29V219.419Z" fill="#EBEBEB"/>
<path d="M153.807 182.452H29.2262C27.2262 182.452 25.5488 180.774 25.5488 178.774V3.67742C25.5488 1.67742 27.2262 0 29.2262 0H153.807C155.807 0 157.484 1.67742 157.484 3.67742V178.774C157.484 180.774 155.807 182.452 153.807 182.452ZM29.2262 0.129033C27.2908 0.129033 25.6779 1.67742 25.6779 3.67742V178.774C25.6779 180.71 27.2262 182.323 29.2262 182.323H153.807C155.742 182.323 157.355 180.774 157.355 178.774V3.67742C157.355 1.74194 155.807 0.129033 153.807 0.129033H29.2262Z" fill="#EBEBEB"/>
<path d="M293.356 182.452H168.775C166.775 182.452 165.098 180.774 165.098 178.774V3.67742C165.098 1.67742 166.775 0 168.775 0H293.356C295.356 0 297.033 1.67742 297.033 3.67742V178.774C297.033 180.774 295.356 182.452 293.356 182.452ZM168.775 0.129033C166.84 0.129033 165.227 1.67742 165.227 3.67742V178.774C165.227 180.71 166.775 182.323 168.775 182.323H293.356C295.291 182.323 296.904 180.774 296.904 178.774V3.67742C296.904 1.74194 295.356 0.129033 293.356 0.129033H168.775Z" fill="#EBEBEB"/>
<path d="M322.581 211.226H0V211.355H322.581V211.226Z" fill="#EBEBEB"/>
<g opacity="0.5">
<path d="M225.821 207.51H287.24V125.832L225.821 125.832V207.51Z" fill="#F5F5F5"/>
<path d="M214.122 207.51H225.864V125.832H214.122V207.51Z" fill="#E6E6E6"/>
<path d="M229.828 151.706H282.925V131.835H229.828V151.706Z" fill="#FAFAFA"/>
<path d="M263.354 131.806L263.096 134.452C263.032 135.355 262.258 136 261.419 136H251.419C250.516 136 249.806 135.355 249.741 134.452L249.483 131.806H263.354Z" fill="#EBEBEB"/>
<path d="M229.828 173.661H282.925V153.79H229.828V173.661Z" fill="#FAFAFA"/>
<path d="M263.354 153.871L263.096 156.516C263.032 157.419 262.258 158.065 261.419 158.065H251.419C250.516 158.065 249.806 157.419 249.741 156.516L249.483 153.871H263.354Z" fill="#EBEBEB"/>
<path d="M229.828 195.679H282.925V175.808H229.828V195.679Z" fill="#FAFAFA"/>
<path d="M263.354 175.871L263.096 178.516C263.032 179.419 262.258 180.065 261.419 180.065H251.419C250.516 180.065 249.806 179.419 249.741 178.516L249.483 175.871H263.354Z" fill="#EBEBEB"/>
<path d="M229.87 211.548H282.322L282.967 207.484H229.87V211.548Z" fill="#E6E6E6"/>
<path d="M218.903 211.548H229.871V207.484H218.258L218.903 211.548Z" fill="#E0E0E0"/>
<path d="M254.516 125.871H275.484L273.161 99.2903H252.193L254.516 125.871Z" fill="#FAFAFA"/>
<path d="M254.516 125.871H253.484L251.161 99.2903H252.193L254.516 125.871Z" fill="#EBEBEB"/>
<path d="M256.387 123.161H273.096L271.225 102H254.58L256.387 123.161Z" fill="#F0F0F0"/>
<path d="M257.613 121.419H271.548L270 103.742H256.064L257.613 121.419Z" fill="#E6E6E6"/>
<path d="M248.58 125.871L250.064 109.419H229.161L227.741 125.871H248.58Z" fill="#F0F0F0"/>
<path d="M248.58 125.871L250.064 109.419H251.161L249.741 125.871H248.58Z" fill="#E0E0E0"/>
<path d="M246.644 124.193L247.805 111.097H231.16L229.999 124.193H246.644Z" fill="#EBEBEB"/>
<path d="M245.354 123.097L246.322 112.129H232.451L231.483 123.097H245.354Z" fill="#F5F5F5"/>
</g>
<g opacity="0.5">
<path d="M200.387 200.516C200.387 204.903 199.677 207.677 198.58 209.484C197.742 210.839 196.129 211.613 194.516 211.613H188.193C186.58 211.613 185.032 210.839 184.129 209.484C182.967 207.677 182.322 204.839 182.322 200.516C182.322 194.193 185.096 189.097 186 185.097C186.322 183.613 185.225 179.161 185.225 179.161H197.484C197.484 179.161 196.387 183.613 196.709 185.097C197.677 189.097 200.387 194.193 200.387 200.516Z" fill="#EBEBEB"/>
<path d="M221.29 174.903C221.29 169.419 212.709 171.677 210.516 163.161C209.677 159.935 216.709 152.645 216.709 152.645H194.838C194.838 152.645 201.871 159.935 201.032 163.161C198.838 171.677 190.258 169.419 190.258 174.903C190.258 180.968 202.387 193.548 202.967 207.742C203.032 209.032 200.709 211.613 200.709 211.613H210.838C210.838 211.613 208.516 208.968 208.58 207.742C209.161 193.548 221.29 180.968 221.29 174.903Z" fill="#F5F5F5"/>
<path d="M214.709 189.161C215.999 186.516 213.354 177.419 213.354 177.419H222.838C222.838 177.419 220.193 186.516 221.483 189.161C222.386 191.032 224.386 192.258 224.386 194.452V207.871C224.386 211.355 221.548 211.613 218.064 211.613C214.58 211.613 211.741 211.355 211.741 207.871V194.452C211.741 192.258 213.806 191.032 214.709 189.161Z" fill="#F0F0F0"/>
</g>
<g opacity="0.5">
<path d="M44.6089 202.891L164.028 202.891V138.632H44.6089L44.6089 202.891Z" fill="#E6E6E6"/>
<path d="M154.532 211.211H162.016V205.533H154.532V211.211Z" fill="#E6E6E6"/>
<path d="M35.5386 211.223H43.0225L43.0225 133.804H35.5386L35.5386 211.223Z" fill="#E6E6E6"/>
<path d="M42.9033 133.806V211.226H46.9033V206.903H162V211.226H166V133.806H164H162H46.9033H44.9033H42.9033ZM46.9033 140.839H102.452V167.742H46.9033V140.839ZM162 199.871H106.452V140.839H162V199.871ZM46.9033 199.871V171.677H102.452V199.871H46.9033Z" fill="#F0F0F0"/>
<path d="M106.432 199.842H158.238V143.713H106.432V199.842Z" fill="#F5F5F5"/>
<path d="M108.774 170.129C108.774 171.484 109.871 172.516 111.162 172.516C112.516 172.516 113.549 171.419 113.549 170.129C113.549 168.839 112.452 167.742 111.162 167.742C109.871 167.677 108.774 168.774 108.774 170.129Z" fill="#FAFAFA"/>
<path d="M111.226 172.516C112.194 172.516 113.032 171.936 113.42 171.097C113.549 171.419 113.613 171.742 113.613 172.129C113.613 173.484 112.516 174.516 111.226 174.516C109.871 174.516 108.839 173.419 108.839 172.129C108.839 171.742 108.903 171.419 109.032 171.097C109.42 171.936 110.258 172.516 111.226 172.516Z" fill="#E0E0E0"/>
<path d="M138.129 199.871H125.807L119.871 143.742H132.258L138.129 199.871Z" fill="#FAFAFA"/>
<path d="M122.645 199.871H120.193L114.258 143.742H116.709L122.645 199.871Z" fill="#FAFAFA"/>
<path d="M89.9288 167.656H94.832V143.656H89.9288V167.656Z" fill="#FAFAFA"/>
<path d="M69.6104 167.656H74.5137V143.656H69.6104V167.656Z" fill="#F5F5F5"/>
<path d="M85.046 167.667H89.9492V145.344H85.046V167.667Z" fill="#F5F5F5"/>
<path d="M74.5577 167.667H79.4609V145.344H74.5577V167.667Z" fill="#FAFAFA"/>
<path d="M79.452 167.656H82.6133V143.656H79.452V167.656Z" fill="#EBEBEB"/>
<path d="M82.6089 167.667H85.0605V145.344H82.6089V167.667Z" fill="#FAFAFA"/>
<path d="M64.7276 167.656H69.6309V143.656H64.7276V167.656Z" fill="#EBEBEB"/>
<path d="M59.8438 167.667H64.7471V145.344H59.8438V167.667Z" fill="#E6E6E6"/>
<path d="M49.3565 167.667H54.2598V145.344H49.3565V167.667Z" fill="#E6E6E6"/>
<path d="M54.2508 167.656H57.4121V143.656H54.2508V167.656Z" fill="#FAFAFA"/>
<path d="M57.4078 167.667H59.8594V145.344H57.4078V167.667Z" fill="#EBEBEB"/>
<path d="M46.9205 167.709H49.3721V144.225H46.9205V167.709Z" fill="#EBEBEB"/>
<path d="M51.8066 175.871H46.9033V199.871H51.8066V175.871Z" fill="#EBEBEB"/>
<path d="M72.1288 175.871H67.2256V199.871H72.1288V175.871Z" fill="#FAFAFA"/>
<path d="M56.7099 177.548H51.8066V199.871H56.7099V177.548Z" fill="#FAFAFA"/>
<path d="M67.2255 177.548H62.3223V199.871H67.2255V177.548Z" fill="#EBEBEB"/>
<path d="M62.3224 175.871H59.1611V199.871H62.3224V175.871Z" fill="#FAFAFA"/>
<path d="M59.1616 177.548H56.71V199.871H59.1616V177.548Z" fill="#F5F5F5"/>
<path d="M76.9677 175.871H72.0645V199.871H76.9677V175.871Z" fill="#EBEBEB"/>
<path d="M81.871 177.548H76.9678V199.871H81.871V177.548Z" fill="#F5F5F5"/>
<path d="M92.3876 177.548H87.4844V199.871H92.3876V177.548Z" fill="#E6E6E6"/>
<path d="M87.4836 175.871H84.3223V199.871H87.4836V175.871Z" fill="#FAFAFA"/>
<path d="M98.0002 175.871H94.8389V199.871H98.0002V175.871Z" fill="#FAFAFA"/>
<path d="M84.3227 177.548H81.8711V199.871H84.3227V177.548Z" fill="#EBEBEB"/>
<path d="M94.8383 176.452H92.3867V199.935H94.8383V176.452Z" fill="#EBEBEB"/>
</g>
<g opacity="0.5">
<path d="M52.3878 92.4517C52.3878 92.4517 51.5491 92.8388 51.162 93.613C50.7749 94.3871 51.9362 95.8065 51.9362 95.8065C51.9362 95.8065 52.9039 96.5162 53.8717 96.0646C54.8394 95.6129 54.8394 95.6129 54.8394 95.6129C54.8394 95.6129 53.162 92.7097 52.3878 92.7097V92.4517Z" fill="#E6E6E6"/>
<path d="M56.5168 92.4516C56.6459 93.8065 55.8071 95.5484 54.5813 95.6774C53.3555 95.8065 52.2588 94.2581 52.1297 92.8387C52.0007 91.4839 52.9684 91.3549 54.1942 91.2258C55.42 91.0968 56.3878 91.0323 56.5168 92.4516Z" fill="#E6E6E6"/>
<path d="M52.9688 92C52.9688 92 53.8721 92.7742 55.8076 92.3226C55.8076 92.3226 52.7753 94.3226 52.9688 92Z" fill="#E6E6E6"/>
<path d="M53.8076 91.742C53.8076 91.742 54.9044 91.5485 54.9044 92.0001C54.9044 92.0001 55.8076 91.9355 55.6786 91.5484C55.5496 91.2259 53.8076 91.742 53.8076 91.742Z" fill="#E6E6E6"/>
<g opacity="0.2">
<path opacity="0.2" d="M52.9688 92C52.9688 92 53.8721 92.7742 55.8076 92.3226C55.8076 92.3226 52.7753 94.3226 52.9688 92Z" fill="#D8E6FF"/>
</g>
<g opacity="0.2">
<path opacity="0.2" d="M53.8076 91.742C53.8076 91.742 54.9044 91.5485 54.9044 92.0001C54.9044 92.0001 55.8076 91.9355 55.6786 91.5484C55.5496 91.2259 53.8076 91.742 53.8076 91.742Z" fill="#D8E6FF"/>
</g>
<path d="M52.5166 96.0645C52.9037 96.7097 53.6779 97.0322 54.4521 96.9032C55.1618 96.8387 55.8714 96.3871 56.2585 95.7419C56.7101 95.1613 56.9037 94.3871 56.9037 93.6774C56.9037 93.4839 56.9037 93.0322 56.7102 92.9032C56.4521 92.8387 56.3231 93.1613 56.2585 93.2903C55.936 93.7419 55.6134 94.129 55.2263 94.5161C54.8392 94.8387 54.4521 95.1613 54.0005 95.4193C53.8069 95.5484 52.5811 96.1935 52.5166 96.0645Z" fill="#E6E6E6"/>
<path d="M57.7429 93.2903C58.001 93.8709 57.872 94.5161 57.5494 94.9677C57.2913 95.2903 56.9687 95.4838 56.6462 95.7419C56.3881 95.8709 56.13 96 55.872 95.8709C55.6139 95.7419 55.6139 95.3548 55.6784 95.0322C55.7429 94.5806 55.872 94.129 56.001 93.6774C56.0655 93.2903 56.13 92.7096 56.3881 92.3871C56.5816 92.129 56.8397 92.258 57.1623 92.4516C57.4204 92.7742 57.6784 93.0322 57.7429 93.2903Z" fill="#E6E6E6"/>
<g opacity="0.2">
<path opacity="0.2" d="M52.839 95.2903C52.3874 95.2903 51.9358 94.9677 51.7422 94.5161C51.6132 94.1935 51.6132 93.3548 52.0648 93.2903C52.2583 94 52.3874 94.6451 52.839 95.2903Z" fill="#D8E6FF"/>
</g>
<g opacity="0.2">
<path opacity="0.2" d="M56.001 95.2903C56.4526 95.1613 56.8397 94.7742 56.9687 94.3871C57.0332 94.129 56.9687 92.9032 56.5816 93.4193C56.4526 93.6129 56.4526 94.129 56.3881 94.3871C56.3236 94.6451 56.1945 94.9677 56.001 95.2903Z" fill="#D8E6FF"/>
</g>
<g opacity="0.2">
<path opacity="0.2" d="M54.3236 96.0646C54.6462 96.3872 55.2268 96.3872 55.5494 96.1291C55.4849 96.3872 54.7107 96.5807 54.5171 96.6452C53.872 96.8388 53.5494 96.5807 52.9688 96.3226C52.9687 96.2581 53.9365 96.3872 54.3236 96.0646Z" fill="#D8E6FF"/>
</g>
<path d="M53.2266 121.161L53.2911 102.516L54.2588 96.9032L54.6459 96.9677L53.6782 102.581L53.6137 121.484L53.2266 121.161Z" fill="#E0E0E0"/>
<path d="M53.6132 102.452L53.2907 102.645C52.9681 102.258 52.71 101.742 52.452 101.161C52.0003 100.258 51.4197 99.2903 50.6455 98.3871L50.9036 98.129C51.7423 99.0323 52.3229 100.065 52.7745 100.968C53.0971 101.613 53.3552 102.129 53.6132 102.452Z" fill="#E0E0E0"/>
<path d="M53.8716 99.9355C54.3877 99.8064 54.8393 99.4838 55.0974 99.0968C55.42 98.6451 55.549 98 55.6135 97.4838C54.9684 97.6774 54.2587 97.3548 53.6135 97.4193C53.0974 97.4838 52.5813 97.8064 52.3232 98.258C52.0006 98.8387 51.8071 99.5484 52.1296 99.8064C52.3877 100 53.2264 100.129 53.8716 99.9355Z" fill="#E6E6E6"/>
<path d="M51.42 98.6452C50.8394 99.0323 50.0652 99.0968 49.42 98.9032C48.7749 98.7097 48.5813 97.6774 48.3232 97.0323C48.9039 96.9032 50.4523 96.9677 50.8394 97.0323C51.162 97.0968 51.549 97.2258 51.7426 97.5484C51.9361 97.871 51.8716 98.2581 51.6136 98.5161C51.4845 98.4516 51.42 98.6452 51.42 98.6452Z" fill="#E6E6E6"/>
<path d="M48.3234 99.7419C48.7105 99.2258 49.7427 98.9032 50.3879 99.0322C51.033 99.1613 51.5492 99.6129 51.8072 100.129C51.6137 100.516 51.1621 100.774 50.775 100.774C50.3234 100.774 49.9363 100.645 49.4847 100.581C49.0976 100.452 48.6459 100.323 48.1943 100.387L48.3234 99.7419Z" fill="#E6E6E6"/>
<path d="M60.7747 96.5807C60.7747 96.5807 61.4199 97.1613 61.6134 98C61.7424 98.8388 60.1941 99.871 60.1941 99.871C60.1941 99.871 59.0328 100.258 58.2586 99.5484C57.4844 98.8388 57.4844 98.8388 57.4844 98.8388C57.4844 98.8388 59.936 96.5807 60.7102 96.7742L60.7747 96.5807Z" fill="#E6E6E6"/>
<path d="M56.7743 95.2903C56.2582 96.5807 56.5808 98.4516 57.6775 98.9033C58.8388 99.3549 60.3227 98.1936 60.8388 96.9678C61.355 95.6774 60.4517 95.2904 59.2904 94.8387C58.2582 94.3871 57.2904 94.0645 56.7743 95.2903Z" fill="#E6E6E6"/>
<path d="M60.3231 96C60.3231 96 59.2263 96.4516 57.4844 95.4839C57.4844 95.4194 59.807 98.2581 60.3231 96Z" fill="#E6E6E6"/>
<path d="M59.6127 95.4839C59.6127 95.4839 58.645 94.9678 58.516 95.4194C58.516 95.4194 57.6772 95.0968 57.8708 94.7742C58.1289 94.4517 59.6127 95.4839 59.6127 95.4839Z" fill="#E6E6E6"/>
<g opacity="0.2">
<path opacity="0.2" d="M60.3231 96C60.3231 96 59.2263 96.4516 57.4844 95.4839C57.4844 95.4194 59.807 98.2581 60.3231 96Z" fill="#D8E6FF"/>
</g>
<g opacity="0.2">
<path opacity="0.2" d="M59.6127 95.4839C59.6127 95.4839 58.645 94.9678 58.516 95.4194C58.516 95.4194 57.6772 95.0968 57.8708 94.7742C58.1289 94.4517 59.6127 95.4839 59.6127 95.4839Z" fill="#D8E6FF"/>
</g>
<path d="M59.5486 99.9355C58.968 100.452 58.1293 100.516 57.4841 100.194C56.8389 99.871 56.3228 99.2903 56.0647 98.5807C55.8067 97.871 55.8712 97.0968 56.0647 96.3871C56.1293 96.1936 56.2583 95.7419 56.5164 95.7419C56.7744 95.7419 56.7744 96.0645 56.8389 96.2581C57.0325 96.7742 57.226 97.2258 57.4841 97.6774C57.7422 98.129 58.0647 98.5161 58.3873 98.9032C58.4518 99.0968 59.4196 100.065 59.5486 99.9355Z" fill="#E6E6E6"/>
<path d="M55.3549 95.8065C54.9678 96.2581 54.8387 96.9678 55.0323 97.4839C55.1613 97.871 55.4194 98.1936 55.6774 98.4516C55.871 98.6452 56.1291 98.9033 56.3871 98.7742C56.6452 98.7097 56.7742 98.3226 56.7742 98.0645C56.8387 97.6129 56.8387 97.1613 56.9032 96.7097C56.9032 96.3226 57.0323 95.742 56.9032 95.3549C56.7742 95.0323 56.4516 95.0968 56.1291 95.2258C55.871 95.3549 55.5484 95.5484 55.3549 95.8065Z" fill="#E6E6E6"/>
<g opacity="0.2">
<path opacity="0.2" d="M59.4844 99.1614C59.936 99.2904 60.4521 99.0969 60.7747 98.7098C60.9682 98.4517 61.2263 97.6775 60.8392 97.4194C60.4521 98.0646 60.065 98.6452 59.4844 99.1614Z" fill="#D8E6FF"/>
</g>
<g opacity="0.2">
<path opacity="0.2" d="M56.4518 98.1935C56.0647 97.9355 55.8066 97.4839 55.8066 97.0322C55.8066 96.7742 56.2583 95.6129 56.4518 96.1935C56.5163 96.3871 56.3228 96.9032 56.3228 97.1613C56.3228 97.4839 56.3873 97.8064 56.4518 98.1935Z" fill="#D8E6FF"/>
</g>
<g opacity="0.2">
<path opacity="0.2" d="M57.8713 99.4194C57.4842 99.6129 56.9036 99.4194 56.6455 99.0968C56.6455 99.3549 57.2907 99.742 57.4842 99.871C58.0003 100.194 58.3874 100.065 59.0326 100C59.0326 100 58.1294 99.871 57.8713 99.4194Z" fill="#D8E6FF"/>
</g>
<path d="M52.71 118.387L52.968 117.613L53.2906 116.581L53.6132 115.419L56.5164 105.871L56.9035 103.161L57.2261 100.71L57.2906 100.194H57.4842L57.6132 100.258V100.323L57.5487 100.774L57.2261 103.355L56.968 105.484L56.9035 105.936L56.839 106L53.6132 116.645L53.2906 117.871L53.0971 118.387L52.839 119.161L52.71 118.387Z" fill="#E0E0E0"/>
<path d="M56.5811 105.742L56.7746 106.065C57.1617 105.806 57.5488 105.419 58.0004 104.903C58.7101 104.194 59.5488 103.355 60.5811 102.774L60.3875 102.452C59.2907 103.097 58.5165 103.936 57.7423 104.645C57.3553 105.097 56.9682 105.484 56.5811 105.742Z" fill="#E0E0E0"/>
<path d="M57.0967 103.29C56.6451 103.032 56.3225 102.581 56.1935 102.129C55.9999 101.548 56.0645 100.968 56.129 100.387C56.7096 100.774 57.4193 100.645 58.0645 100.903C58.5806 101.097 58.9032 101.548 59.0322 102.064C59.1612 102.71 59.0967 103.419 58.7741 103.613C58.5161 103.806 57.6774 103.677 57.0967 103.29Z" fill="#E6E6E6"/>
<path d="M59.8711 102.774C60.3227 103.29 61.0324 103.613 61.7421 103.613C62.4518 103.613 62.9034 102.71 63.355 102.129C62.8389 101.806 61.2905 101.484 60.9679 101.419C60.6453 101.355 60.2582 101.419 60.0002 101.613C59.7421 101.871 59.6131 102.258 59.8711 102.581V102.774Z" fill="#E6E6E6"/>
<path d="M62.4516 104.71C62.1935 104.129 61.3548 103.484 60.7096 103.419C60.0645 103.355 59.4193 103.613 59.0322 104C59.0967 104.452 59.4193 104.774 59.8064 104.968C60.1935 105.097 60.6451 105.097 61.0967 105.097C61.5484 105.097 62 105.097 62.3871 105.226L62.4516 104.71Z" fill="#E6E6E6"/>
<path d="M47.6778 95.8065C47.6778 95.8065 46.9681 96.3227 46.7101 97.1614C46.452 98.0001 47.8714 99.1614 47.8714 99.1614C47.8714 99.1614 48.9681 99.6775 49.8068 99.0323C50.7101 98.4517 50.7101 98.4517 50.7101 98.4517C50.7101 98.4517 48.581 95.9356 47.7423 96.0001L47.6778 95.8065Z" fill="#E6E6E6"/>
<path d="M51.8067 95.0323C52.1938 96.3871 51.6132 98.1936 50.4519 98.5162C49.2906 98.8388 47.8712 97.4839 47.4842 96.1936C47.0971 94.8388 48.0648 94.5807 49.2261 94.2581C50.3874 93.9355 51.4196 93.742 51.8067 95.0323Z" fill="#E6E6E6"/>
<path d="M48.1934 95.2904C48.1934 95.2904 49.2256 95.871 51.0321 95.0968C51.0321 95.0968 48.4514 97.6129 48.1934 95.2904Z" fill="#E6E6E6"/>
<path d="M48.9678 94.9032C48.9678 94.9032 50 94.5161 50.0645 94.9677C50.0645 94.9677 50.9678 94.7742 50.7742 94.3871C50.5807 94 48.9678 94.9032 48.9678 94.9032Z" fill="#E6E6E6"/>
<g opacity="0.2">
<path opacity="0.2" d="M48.1934 95.2904C48.1934 95.2904 49.2256 95.871 51.0321 95.0968C51.0321 95.0968 48.4514 97.6129 48.1934 95.2904Z" fill="#D8E6FF"/>
</g>
<g opacity="0.2">
<path opacity="0.2" d="M48.9678 94.9032C48.9678 94.9032 50 94.5161 50.0645 94.9677C50.0645 94.9677 50.9678 94.7742 50.7742 94.3871C50.5807 94 48.9678 94.9032 48.9678 94.9032Z" fill="#D8E6FF"/>
</g>
<path d="M48.5166 99.3549C49.0327 99.9355 49.8714 100.065 50.5811 99.871C51.2908 99.6774 51.8714 99.0968 52.194 98.3871C52.5166 97.742 52.5811 96.9678 52.4521 96.1936C52.4521 96 52.3876 95.5484 52.1295 95.4839C51.8714 95.4839 51.8069 95.8065 51.7424 96C51.5489 96.4516 51.2908 96.9678 50.9682 97.3549C50.6456 97.7419 50.3231 98.1291 49.8714 98.4516C49.6779 98.5807 48.5811 99.4194 48.5166 99.3549Z" fill="#E6E6E6"/>
<path d="M53.1618 95.6775C53.4844 96.1936 53.5489 96.8387 53.2908 97.4194C53.0973 97.742 52.8392 98.0645 52.5166 98.3226C52.3231 98.5162 52.065 98.7097 51.807 98.5807C51.5489 98.4516 51.4844 98.1291 51.4844 97.8065C51.4844 97.3549 51.4844 96.9033 51.5489 96.4516C51.5489 96.0645 51.5489 95.4839 51.6779 95.1613C51.807 94.8387 52.1295 94.9678 52.4521 95.0968C52.7102 95.2258 52.9682 95.4194 53.1618 95.6775Z" fill="#E6E6E6"/>
<g opacity="0.2">
<path opacity="0.2" d="M48.6454 98.5162C48.1937 98.5807 47.6776 98.3227 47.4195 97.9356C47.226 97.613 47.097 96.8388 47.4841 96.6453C47.8712 97.3549 48.1292 98.0001 48.6454 98.5162Z" fill="#D8E6FF"/>
</g>
<g opacity="0.2">
<path opacity="0.2" d="M51.8066 97.9355C52.1937 97.742 52.5163 97.2903 52.5808 96.8387C52.5808 96.5807 52.3228 95.3549 52.0002 95.9355C51.9357 96.1291 52.0002 96.6452 52.0002 96.9032C52.0002 97.2903 51.9357 97.6129 51.8066 97.9355Z" fill="#D8E6FF"/>
</g>
<g opacity="0.2">
<path opacity="0.2" d="M50.2582 98.9678C50.6453 99.2259 51.1614 99.0969 51.484 98.7743C51.484 99.0324 50.7743 99.3549 50.5808 99.484C50.0001 99.742 49.613 99.5485 49.0324 99.4195C48.9679 99.4195 49.9356 99.4194 50.2582 98.9678Z" fill="#D8E6FF"/>
</g>
<path d="M53.7426 123.935L50.4523 105.613L50.3232 99.871H50.7103L50.7749 105.548L54.1297 124.194L53.7426 123.935Z" fill="#E0E0E0"/>
<path d="M50.7106 105.419L50.4525 105.677C50.0654 105.355 49.7428 104.903 49.3557 104.387C48.7106 103.613 48.0009 102.71 47.0977 102L47.2912 101.677C48.2589 102.452 49.0331 103.355 49.6138 104.129C50.0654 104.71 50.388 105.161 50.7106 105.419Z" fill="#E0E0E0"/>
<path d="M50.5166 102.968C50.9682 102.774 51.3553 102.387 51.5488 101.871C51.8069 101.355 51.8069 100.71 51.8069 100.129C51.2263 100.452 50.4521 100.258 49.8069 100.452C49.2908 100.581 48.8392 101.032 48.7101 101.548C48.4521 102.194 48.4521 102.903 48.8392 103.097C49.0972 103.29 49.8714 103.226 50.5166 102.968Z" fill="#E6E6E6"/>
<path d="M47.8714 102.129C47.3553 102.581 46.6456 102.839 45.936 102.774C45.2263 102.71 44.8392 101.742 44.5166 101.161C45.0972 100.903 46.6456 100.71 46.9682 100.71C47.2908 100.71 47.6779 100.774 47.936 101.032C48.194 101.29 48.194 101.742 48.0005 102C47.8714 101.871 47.8714 102.129 47.8714 102.129Z" fill="#E6E6E6"/>
<path d="M45.0323 103.742C45.3549 103.161 46.2581 102.645 46.9033 102.645C47.5484 102.645 48.1291 102.968 48.4516 103.419C48.3871 103.871 47.9355 104.129 47.5484 104.258C47.0968 104.387 46.7097 104.323 46.2581 104.258C45.8065 104.194 45.3549 104.129 44.9678 104.258L45.0323 103.742Z" fill="#E6E6E6"/>
<path d="M55.0972 112.645H51.2262C50.9681 112.645 50.7101 112.839 50.581 113.097C50.2584 114.129 49.6133 116.71 49.6133 120.903C49.6133 125.484 50.7746 131.484 51.1617 133.29C51.2262 133.613 51.4843 133.806 51.8068 133.806H54.5165C54.8391 133.806 55.0972 133.613 55.1617 133.29C55.5488 131.484 56.7101 125.484 56.7101 120.903C56.7101 116.774 56.0649 114.129 55.7423 113.097C55.6133 112.839 55.3552 112.645 55.0972 112.645Z" fill="#F0F0F0"/>
</g>
<path d="M189.99 221.406L196.441 220.438L194.764 205.406L188.377 206.373L189.99 221.406Z" fill="#E8BFBF"/>
<path d="M201.344 220.696C201.925 220.631 202.441 220.438 202.828 220.051C203.021 219.857 203.086 219.535 202.957 219.277C202.892 219.083 202.828 218.954 202.634 218.889C201.796 218.567 199.409 220.309 199.15 220.502C199.086 220.567 199.086 220.631 199.086 220.696C199.086 220.76 199.15 220.825 199.215 220.825C199.989 220.825 200.699 220.76 201.344 220.696ZM202.247 219.148C202.312 219.148 202.441 219.148 202.57 219.148C202.634 219.148 202.699 219.212 202.699 219.277C202.763 219.47 202.699 219.664 202.634 219.793C202.312 220.18 201.279 220.438 199.796 220.438C200.505 219.922 201.344 219.47 202.247 219.148Z" fill="#2E6DDE"/>
<path d="M199.344 220.76C200.119 220.244 201.409 218.631 201.151 217.922C201.086 217.793 200.957 217.535 200.506 217.599C200.183 217.599 199.925 217.728 199.667 217.986C198.957 218.76 199.086 220.567 199.086 220.631C199.086 220.696 199.086 220.76 199.151 220.76C199.215 220.76 199.28 220.76 199.344 220.76ZM200.441 217.922L200.506 217.857C200.764 217.857 200.828 217.922 200.828 217.986C200.957 218.438 200.119 219.664 199.409 220.244C199.344 219.535 199.538 218.76 199.925 218.115C200.054 217.986 200.248 217.922 200.441 217.922Z" fill="#2E6DDE"/>
<path d="M195.731 217.793L190.054 219.147C189.796 219.212 189.602 219.47 189.667 219.728L189.86 227.986C189.925 228.567 190.441 228.954 191.022 228.889C191.086 228.889 191.086 228.889 191.151 228.889C193.602 228.244 194.764 227.857 197.925 227.147C199.86 226.696 205.925 226.244 208.441 225.147C210.957 224.051 209.989 221.535 208.828 221.728C205.151 222.502 200.441 220.954 197.796 218.567C197.409 218.309 196.118 217.664 195.731 217.793Z" fill="#263238"/>
<path opacity="0.2" d="M194.764 205.406L195.603 213.148L189.216 214.115L188.377 206.373L194.764 205.406Z" fill="black"/>
<path d="M198.248 209.986L186.377 212.18C186.377 212.18 180.635 203.922 179.538 198.115C178.377 192.051 179.603 171.277 179.538 171.018C176.183 159.664 167.022 130.244 162.635 119.406C160.183 113.406 158.506 109.341 158.506 109.341L159.732 109.083L169.409 105.083L176.506 106.438C176.506 106.438 197.99 149.922 200.248 166.244C201.861 178.438 198.248 209.986 198.248 209.986Z" fill="#2E6DDE"/>
<path opacity="0.3" d="M198.248 209.986L186.377 212.18C186.377 212.18 180.635 203.922 179.538 198.115C178.377 192.051 179.603 171.277 179.538 171.018C176.183 159.664 167.022 130.244 162.635 119.406C160.183 113.406 158.506 109.341 158.506 109.341L159.732 109.083L169.409 105.083L176.506 106.438C176.506 106.438 197.99 149.922 200.248 166.244C201.861 178.438 198.248 209.986 198.248 209.986Z" fill="#2E6DDE"/>
<path opacity="0.2" d="M176.699 161.148C173.344 149.793 166.57 132.567 162.119 121.728L159.215 111.406L158.635 109.406L159.667 111.277L171.215 136.76C176.248 146.567 176.764 161.406 176.699 161.148Z" fill="black"/>
<path d="M124.507 217.857L130.184 220.244L136.313 207.148L130.571 204.696L124.507 217.857Z" fill="#E8BFBF"/>
<path d="M133.925 223.019C134.377 223.277 134.893 223.406 135.474 223.341C135.732 223.277 135.925 223.083 136.054 222.825C136.119 222.696 136.119 222.502 135.99 222.373C135.474 221.664 132.7 221.664 132.377 221.664C132.313 221.664 132.248 221.728 132.248 221.793C132.248 221.857 132.248 221.922 132.313 221.922C132.829 222.309 133.345 222.696 133.925 223.019ZM135.474 222.373C135.538 222.438 135.667 222.438 135.667 222.567C135.732 222.631 135.732 222.696 135.667 222.76C135.603 222.954 135.474 223.083 135.28 223.083C134.764 223.212 133.861 222.825 132.7 221.986C133.732 221.922 134.635 222.051 135.474 222.373Z" fill="#084BC3"/>
<path d="M132.313 221.922C133.152 221.986 135.087 221.406 135.345 220.76C135.41 220.567 135.41 220.373 135.023 220.115C134.765 219.922 134.442 219.857 134.184 219.922C133.216 220.115 132.313 221.599 132.248 221.664C132.248 221.728 132.184 221.728 132.248 221.793C132.248 221.857 132.313 221.922 132.313 221.922ZM134.765 220.373H134.829C135.023 220.502 135.023 220.631 135.023 220.631C134.894 221.019 133.539 221.535 132.635 221.599C133.023 221.019 133.539 220.502 134.184 220.244C134.442 220.18 134.635 220.244 134.765 220.373Z" fill="#084BC3"/>
<path d="M131.281 217.599L126.12 215.406C125.862 215.277 125.604 215.406 125.474 215.599L120.958 222.051C120.7 222.567 120.894 223.148 121.345 223.406C121.41 223.406 121.41 223.47 121.474 223.47C123.733 224.373 124.894 224.696 127.668 225.922C129.41 226.696 134.378 229.728 136.894 230.309C139.474 230.89 140.12 228.373 139.087 227.922C135.797 226.438 133.087 222.567 132.378 219.212C132.249 218.954 131.604 217.728 131.281 217.599Z" fill="#263238"/>
<path opacity="0.2" d="M136.571 207.277L133.281 213.986L127.604 211.406L130.894 204.76L136.571 207.277Z" fill="black"/>
<path d="M137.797 214.567L126.377 208.502C126.377 208.502 124.184 200.373 126.377 195.212C130.571 185.212 141.539 170.567 141.603 170.309C144.506 158.825 149.668 127.406 151.41 115.857C152.377 109.47 152.958 108.051 152.958 108.051L154.184 108.438L171.668 108.502C171.668 108.502 174.958 134.954 162.313 175.857C159.151 186.051 153.926 194.502 145.28 205.986C141.926 210.309 137.797 214.567 137.797 214.567Z" fill="url(#paint0_linear)"/>
<path d="M187.087 86.8895C187.216 84.954 188.506 82.3734 189.668 81.2121C190.055 80.825 191.409 80.2443 192.184 79.7927C195.99 77.2766 203.539 74.1798 203.539 74.1798L205.861 76.2443C205.861 76.2443 201.216 80.6959 198.506 82.825C197.99 83.2766 197.345 83.7282 196.7 84.3088C195.474 85.2766 189.861 89.0185 188.829 89.9218L187.087 86.8895Z" fill="#FFC3BD"/>
<path d="M210.119 73.0185L205.796 76.2443L203.345 74.4378C203.345 74.4378 204.312 73.1475 205.345 72.1798C205.796 71.7282 206.054 71.1475 206.054 70.5669C206.054 69.5991 206.183 68.5024 206.7 67.6636V67.5991C207.667 66.1798 209.861 66.6314 210.248 68.2443L210.893 70.5669C211.216 71.5346 210.893 72.5023 210.119 73.0185Z" fill="#FFC3BD"/>
<path d="M188.442 87.7281L187.281 88.7604C186.894 88.5023 186.377 87.9862 185.668 87.4055C180.119 82.7604 166.184 71.5991 171.732 68.3733C176.506 65.6636 181.539 73.9862 184.055 76.5668C184.571 77.0829 185.99 78.6958 187.087 80.7604C188.313 82.9539 189.216 85.5346 188.442 87.7281Z" fill="#263238"/>
<path d="M186.781 80C184.831 81.3895 183.195 83.2211 182 85.2421C182.881 88.2105 185.145 90.8 187.976 92C189.548 88.4 190.24 84.4842 189.926 80.5684C188.919 80.379 187.724 80.1895 186.781 80Z" fill="#EAA60B"/>
<path d="M156.306 67.721C154.283 68.3696 152 67.8507 150.696 69.5371C149.391 71.2235 149 73.364 149 75.5044C149 78.4232 149.652 81.2771 150.37 84.131C151.153 87.5686 152 91.0063 152.783 94.5088C153.305 96.8438 152.783 107.805 153.37 108C153.37 108 171.83 107.611 176.461 107.027C176.461 107.027 176.852 95.7412 177.244 91.9144C177.309 91.0711 178.613 87.4389 178.809 86.5308C179.527 82.25 178.092 79.2015 176.657 75.1801C176.657 75.1801 173.395 68.6291 171.83 68.4345C168.829 68.0453 161.915 65.9049 156.306 67.721Z" fill="url(#paint1_linear)"/>
<path d="M155.836 73.005C155.77 72.6123 152.433 66.0019 149.231 70.6488C144.76 77.1284 144.493 85.1787 144.493 85.1787C144.493 85.1787 141.757 93.0328 143.692 94.7999C145.627 96.5016 147.696 97.6143 149.03 96.6325C150.365 95.6508 151.232 93.6873 151.232 93.6873C151.232 93.6873 157.037 79.8118 155.836 73.005Z" fill="#EAA60B"/>
<path d="M155.539 65.341C154.184 66.3733 154.378 68.8894 155.862 69.7281C155.474 71.0185 155.926 72.5668 156.958 73.4701C157.991 74.3733 159.539 74.6314 160.829 74.1152C160.313 75.083 160.894 76.3733 161.862 77.0185C162.829 77.5991 163.991 77.7281 165.087 77.8572C166.184 77.9862 167.345 78.2443 168.184 79.0184C169.345 77.341 170.507 75.7281 171.603 74.0507C172.055 73.4055 172.507 72.6959 172.571 71.9217C172.636 71.1475 171.991 70.2443 171.216 70.3088C171.991 69.4701 172.055 68.0507 171.281 67.212C170.507 66.3733 169.023 66.2443 168.184 66.9539C168.313 66.3088 167.926 65.5991 167.41 65.212C166.829 64.8249 166.184 64.6959 165.474 64.6313L155.539 65.341Z" fill="#263238"/>
<path d="M157.207 57C158.173 60.2626 159.346 66.2761 157 68.6431C157 68.6431 163.555 71.0741 168.246 76C170.454 74.0168 170.178 71.8418 169.557 70.2424C169.074 68.963 167.901 68.0673 166.59 67.5556C164.038 66.532 164.038 64.229 164.452 61.9899L157.207 57Z" fill="#E8BFBF"/>
<path opacity="0.2" d="M158.958 62.5669L161.216 63.2121C162.184 63.4701 163.216 63.5346 164.184 63.4056C164.184 63.9217 164.055 64.954 164.377 65.4701C163.087 66.1153 160.893 65.6637 159.926 64.5024C159.539 64.0508 159.152 63.1475 158.958 62.5669Z" fill="black"/>
<path d="M153.216 54.1798C155.603 59.212 156.506 61.4056 160.183 63.0185C165.732 65.4701 171.409 61.4056 170.571 55.7282C169.796 50.6314 165.99 43.212 160.119 43.1475C155.925 43.083 152.441 46.5023 152.377 50.6959C152.441 51.9217 152.7 53.083 153.216 54.1798Z" fill="#FFC3BD"/>
<path d="M155.861 44.5023C154.119 43.6636 151.925 44.3733 150.506 45.6636C149.022 46.9539 148.119 48.7604 147.28 50.5668C146.829 51.5346 146.312 52.5023 146.119 53.5346C145.925 54.5668 145.99 55.7281 146.506 56.6313C147.022 57.5346 148.054 58.1152 149.087 58.1797C149.667 58.2442 150.377 58.6313 150.571 59.212C150.764 59.7281 150.635 60.3088 150.571 60.8894C150.506 61.4055 150.441 61.9862 150.571 62.5023C150.829 63.341 151.732 63.8572 152.635 63.9862C153.538 64.0507 154.441 63.7926 155.28 63.5346C155.796 63.341 156.377 63.4701 156.764 63.8572C156.893 63.9217 156.958 64.0507 157.022 64.1797C157.28 64.6959 158.054 64.6313 158.312 64.0507C159.087 62.1797 157.925 59.212 156.248 56.9539C155.345 55.7281 155.409 56.0507 155.022 54.6313C154.7 53.4055 155.151 52.1797 155.732 51.0184C156.441 49.5346 157.409 48.0507 157.087 46.2442C157.022 45.4701 156.506 44.8249 155.861 44.5023Z" fill="#263238"/>
<path d="M153.345 59.3411C154.119 60.1798 155.216 60.6959 156.377 60.6959C157.925 60.7604 158.312 59.2766 157.538 57.9863C156.893 56.825 155.28 55.4701 153.861 56.0508C152.506 56.6314 152.377 58.2443 153.345 59.3411Z" fill="#FFC3BD"/>
<path d="M156.248 43.6637C154.829 43.7927 153.474 44.5669 152.764 45.7927C152.248 46.5669 152.055 47.7927 152.829 48.3733C153.216 48.6314 153.668 48.6959 154.119 48.6959C156.055 48.8895 158.506 47.3411 158.506 47.3411C157.732 44.1153 164.506 41.6637 167.797 46.6314C168.764 48.1153 168.506 49.1475 170.119 49.7927C170.893 50.1153 171.861 50.0508 172.377 50.6959C173.216 51.7927 171.603 53.6637 172.635 54.6314C173.28 55.2766 174.829 55.0185 174.958 55.9862C175.022 56.4379 174.7 57.083 175.151 57.212C175.41 57.2766 175.603 57.083 175.732 56.8895C176.119 56.4379 176.442 55.9217 176.571 55.3411C176.7 54.7604 176.506 54.0508 175.926 53.8572C175.539 53.6637 174.442 53.8572 174.506 54.3088C174.571 54.8249 174.119 52.1798 174.313 51.2121C174.506 50.3733 175.345 49.5991 175.087 48.7604C174.829 47.8572 173.732 47.4701 172.829 47.3411C171.926 47.2121 170.829 47.083 170.248 46.3088C169.603 45.4701 169.926 44.2443 169.668 43.212C169.41 41.9217 168.313 40.8895 167.087 40.3088C163.28 38.6959 157.539 38.954 156.248 43.6637Z" fill="#263238"/>
<path d="M166.829 60.825L153.926 67.2766C149.668 69.4056 147.797 74.4379 149.474 78.825L155.668 94.6959C157.41 99.083 162.184 101.47 166.765 100.18L180.636 96.1798C185.861 94.6959 188.636 89.0185 186.636 83.9862L179.41 65.6637C177.539 60.6959 171.668 58.4379 166.829 60.825ZM164.7 88.1153C161.797 89.2121 158.571 87.7927 157.474 84.954C156.378 82.0508 157.797 78.825 160.636 77.7282C163.539 76.6314 166.765 78.0508 167.861 80.8895C169.023 83.7282 167.603 86.954 164.7 88.1153Z" fill="#2E6DDE"/>
<path d="M166.829 60.825L153.926 67.2766C149.668 69.4056 147.797 74.4379 149.474 78.825L155.668 94.6959C157.41 99.083 162.184 101.47 166.765 100.18L180.636 96.1798C185.861 94.6959 188.636 89.0185 186.636 83.9862L179.41 65.6637C177.539 60.6959 171.668 58.4379 166.829 60.825ZM164.7 88.1153C161.797 89.2121 158.571 87.7927 157.474 84.954C156.378 82.0508 157.797 78.825 160.636 77.7282C163.539 76.6314 166.765 78.0508 167.861 80.8895C169.023 83.7282 167.603 86.954 164.7 88.1153Z" fill="#2E6DDE"/>
<path opacity="0.1" d="M186.764 84.0508L179.539 65.7282C177.539 60.6959 171.668 58.4379 166.829 60.8895L163.087 62.7604L160.571 64.0508L153.926 67.4056C149.668 69.5346 147.732 74.5669 149.474 78.954L155.668 94.825C157.41 99.2766 162.248 101.599 166.764 100.309L180.635 96.3088C181.797 95.9862 182.764 95.4701 183.668 94.7604C184.377 94.2443 184.958 93.6637 185.474 92.954C187.345 90.4379 187.926 87.1475 186.764 84.0508ZM164.7 88.1153C161.797 89.2121 158.571 87.7927 157.474 84.954C156.377 82.0508 157.797 78.825 160.635 77.7282C163.539 76.6314 166.764 78.0508 167.861 80.8895C169.022 83.7282 167.603 86.954 164.7 88.1153Z" fill="white"/>
<path d="M166.958 62.0507L154.829 68.1152C150.829 70.1152 149.023 74.8249 150.7 78.954L156.507 93.8572C158.12 97.9862 162.636 100.244 166.894 99.0185L179.926 95.2765C184.829 93.8572 187.41 88.5669 185.539 83.8572L178.894 66.6314C177.023 61.9217 171.539 59.7927 166.958 62.0507ZM157.474 84.9539C156.378 82.0507 157.797 78.8249 160.636 77.7281C163.539 76.6314 166.765 78.0507 167.862 80.8894C168.958 83.7927 167.603 87.0185 164.7 88.1152C161.862 89.212 158.571 87.7927 157.474 84.9539Z" fill="#2E6DDE"/>
<path opacity="0.1" d="M166.958 62.0507L154.829 68.1152C150.829 70.1152 149.023 74.8249 150.7 78.954L156.507 93.8572C158.12 97.9862 162.636 100.244 166.894 99.0185L179.926 95.2765C184.829 93.8572 187.41 88.5669 185.539 83.8572L178.894 66.6314C177.023 61.9217 171.539 59.7927 166.958 62.0507ZM157.474 84.9539C156.378 82.0507 157.797 78.8249 160.636 77.7281C163.539 76.6314 166.765 78.0507 167.862 80.8894C168.958 83.7927 167.603 87.0185 164.7 88.1152C161.862 89.212 158.571 87.7927 157.474 84.9539Z" fill="#084BC3"/>
<path d="M227.087 56.3088L226.7 56.954L226.506 57.3411L225.925 58.4378L226.183 61.1475C226.183 61.2765 226.183 61.4056 226.119 61.4701C226.054 61.7282 225.861 61.9217 225.603 61.9862L220.506 63.9862C220.248 64.0507 219.99 64.0507 219.796 63.9217C219.732 63.8572 219.667 63.8572 219.603 63.7927L216.7 60.8894L212.57 62.5024L213.151 63.9862L209.022 65.5991L209.99 68.1153L206.958 69.2765C206.7 69.3411 206.441 69.3411 206.183 69.212C206.119 69.1475 206.054 69.1475 205.99 69.083L204.248 67.4701L200.119 69.083L201.087 71.5991L196.764 73.2765L197.732 75.7927C197.861 76.1798 197.667 76.6314 197.28 76.8249L185.474 81.4701L180.377 68.4378L223.087 51.7281L223.732 52.0507L225.925 53.1475C227.28 53.7282 227.732 55.1475 227.087 56.3088Z" fill="#2E6DDE"/>
<g opacity="0.1">
<path opacity="0.1" d="M227.087 56.3088L226.7 56.954L226.506 57.3411L225.925 58.4378L226.183 61.1475C226.183 61.2765 226.183 61.4056 226.119 61.4701C226.054 61.7282 225.861 61.9217 225.603 61.9862L220.506 63.9862C220.248 64.0507 219.99 64.0507 219.796 63.9217C219.732 63.8572 219.667 63.8572 219.603 63.7927L216.7 60.8894L212.57 62.5024L213.151 63.9862L209.022 65.5991L209.99 68.1153L206.958 69.2765C206.7 69.3411 206.441 69.3411 206.183 69.212C206.119 69.1475 206.054 69.1475 205.99 69.083L204.248 67.4701L200.119 69.083L201.087 71.5991L196.764 73.2765L197.732 75.7927C197.861 76.1798 197.667 76.6314 197.28 76.8249L185.474 81.4701L180.377 68.4378L223.087 51.7281L223.732 52.0507L225.925 53.1475C227.28 53.7282 227.732 55.1475 227.087 56.3088Z" fill="white"/>
</g>
<path d="M226.958 54.825L181.281 72.6959L179.926 69.3411L223.474 52.3088L225.668 53.4056C226.442 53.8572 226.958 54.2443 226.958 54.825Z" fill="#2E6DDE"/>
<path opacity="0.1" d="M226.958 54.825L181.281 72.6959L179.926 69.3411L223.474 52.3088L225.668 53.4056C226.442 53.8572 226.958 54.2443 226.958 54.825Z" fill="black"/>
<path d="M226.055 57.3411L225.603 58.3088V58.3733L225.862 61.083C225.862 61.212 225.862 61.2765 225.862 61.3411C225.862 61.3411 225.862 61.4056 225.797 61.4056L220.249 63.5991H220.184C220.12 63.5346 220.055 63.5346 220.055 63.4701L216.894 60.3088C216.894 60.3088 216.829 60.2443 216.765 60.3088L212.249 62.0507C212.184 62.0507 212.184 62.1152 212.184 62.1798L212.7 63.5346C212.7 63.5991 212.7 63.6636 212.636 63.6636L208.829 65.1475C208.765 65.1475 208.765 65.212 208.765 65.2765L209.668 67.5991C209.668 67.6636 209.668 67.7281 209.603 67.7281L206.765 68.8249H206.7C206.636 68.7604 206.571 68.7604 206.507 68.6959L204.442 66.8249C204.442 66.8249 204.378 66.7604 204.313 66.8249L199.862 68.5669C199.797 68.5669 199.797 68.6314 199.797 68.6959L200.765 71.083C200.765 71.1475 200.765 71.212 200.7 71.212L183.539 77.9862C183.474 77.9862 183.41 77.9862 183.41 77.9217L181.668 73.5991C181.668 73.5346 181.668 73.4701 181.732 73.4701L226.442 55.8572C226.507 55.7927 226.636 55.9217 226.571 55.9862L226.055 57.3411Z" fill="#2E6DDE"/>
<path opacity="0.1" d="M226.055 57.3411L225.603 58.3088V58.3733L225.862 61.083C225.862 61.212 225.862 61.2765 225.862 61.3411C225.862 61.3411 225.862 61.4056 225.797 61.4056L220.249 63.5991H220.184C220.12 63.5346 220.055 63.5346 220.055 63.4701L216.894 60.3088C216.894 60.3088 216.829 60.2443 216.765 60.3088L212.249 62.0507C212.184 62.0507 212.184 62.1152 212.184 62.1798L212.7 63.5346C212.7 63.5991 212.7 63.6636 212.636 63.6636L208.829 65.1475C208.765 65.1475 208.765 65.212 208.765 65.2765L209.668 67.5991C209.668 67.6636 209.668 67.7281 209.603 67.7281L206.765 68.8249H206.7C206.636 68.7604 206.571 68.7604 206.507 68.6959L204.442 66.8249C204.442 66.8249 204.378 66.7604 204.313 66.8249L199.862 68.5669C199.797 68.5669 199.797 68.6314 199.797 68.6959L200.765 71.083C200.765 71.1475 200.765 71.212 200.7 71.212L183.539 77.9862C183.474 77.9862 183.41 77.9862 183.41 77.9217L181.668 73.5991C181.668 73.5346 181.668 73.4701 181.732 73.4701L226.442 55.8572C226.507 55.7927 226.636 55.9217 226.571 55.9862L226.055 57.3411Z" fill="black"/>
<path opacity="0.3" d="M160.313 76.3088C156.7 77.7282 154.958 81.7927 156.313 85.4056C157.732 89.0185 161.797 90.7605 165.41 89.4056C169.022 87.9863 170.764 83.9217 169.41 80.3088C167.99 76.6314 163.926 74.8895 160.313 76.3088ZM164.7 88.1153C161.797 89.2121 158.571 87.7927 157.474 84.954C156.377 82.0508 157.797 78.825 160.635 77.7282C163.539 76.6314 166.764 78.0508 167.861 80.8895C169.022 83.7282 167.603 86.954 164.7 88.1153Z" fill="white"/>
<path opacity="0.1" d="M185.539 92.8894C185.023 93.5991 184.442 94.1797 183.733 94.6959L160.571 63.9862C160.571 63.9862 162.636 62.9539 163.087 62.6313V62.6959C164.12 64.8894 182.313 88.5668 185.539 92.8894Z" fill="white"/>
<path opacity="0.1" d="M182.184 95.6637C182.055 95.7282 175.281 97.7927 175.281 97.7927L167.732 87.7927C169.668 85.8572 170.378 82.954 169.345 80.2443C167.926 76.6314 163.861 74.825 160.249 76.2443C159.926 76.3733 159.603 76.5024 159.345 76.6959L152.765 67.9217C152.765 67.9217 158.636 65.1475 159.281 64.6959C159.41 65.9217 182.184 95.4056 182.184 95.6637Z" fill="white"/>
<path d="M154.84 47.0351C154.118 47.9251 153.877 49.133 154.057 50.2774C154.298 51.4217 155.02 52.3753 156.043 52.8839C156.585 53.1382 157.126 53.2653 157.608 53.5196C158.089 53.7739 158.57 54.2189 158.63 54.8547C158.691 55.4904 158.209 56.1262 158.269 56.7619C158.33 57.3341 158.751 57.8427 159.232 58.2241C159.714 58.6055 160.195 58.9234 160.436 59.4956C160.676 60.0677 160.496 60.8306 159.954 61.0213C159.834 61.2121 159.774 61.6571 159.954 61.8478C160.075 62.0385 160.375 62.0385 160.556 61.9114C161.398 61.3392 162 60.322 162 59.2413C162 58.1605 161.398 57.1433 160.496 56.6983C160.315 56.3169 160.436 55.9354 160.616 55.554C160.917 54.8547 161.158 54.0918 161.458 53.3925C161.579 53.1382 161.458 52.566 161.278 52.3753C161.097 52.121 160.797 51.9939 160.556 51.8667L158.811 51.0402C158.149 50.7224 156.163 47.9251 158.51 47.0987C158.209 46.3993 157.668 46.1451 156.946 46.0179C156.224 45.8908 155.321 46.4629 154.84 47.0351Z" fill="#263238"/>
<path d="M157.951 43.871C157.887 44.6452 157.822 45.3549 157.758 46.1291C158.403 45.0968 159.564 43.0968 159.5 43.1613C159.048 43.4194 158.467 43.6129 157.951 43.871Z" fill="#263238"/>
<path d="M158.854 45.0968C159.758 44.2581 160.596 43.4839 161.5 42.6452C160.79 42.3871 160.016 42.5807 159.5 43.0968C159.5 43.0323 159.048 44.3226 158.854 45.0968Z" fill="#263238"/>
<path d="M153.078 106.101C149.636 110.377 150.74 113.68 146 121.259C152.039 125.729 158.662 126.442 166.844 125.794C167.818 124.109 168.338 122.296 169.247 120.547C170.61 122.296 171.779 123.721 173.143 125.47C177.429 124.822 182.558 123.591 186 121.389C183.013 117.956 181.13 113.68 179.182 109.858C178.273 108.109 178.662 107.332 176.26 105C168.662 105.324 161.065 105.518 153.468 105.907C153.662 105.972 152.883 106.101 153.078 106.101Z" fill="url(#paint2_linear)"/>
<g opacity="0.5">
<path d="M154.404 105.42L153.952 107.42C153.887 107.549 154.081 107.743 154.339 107.743L175.242 106.839C175.436 106.839 175.629 106.71 175.629 106.581L175.758 104.581C175.758 104.452 175.565 104.323 175.371 104.323L154.855 105.227C154.597 105.227 154.468 105.291 154.404 105.42Z" fill="#263238"/>
<path d="M154.404 105.42L153.952 107.42C153.887 107.549 154.081 107.743 154.339 107.743L175.242 106.839C175.436 106.839 175.629 106.71 175.629 106.581L175.758 104.581C175.758 104.452 175.565 104.323 175.371 104.323L154.855 105.227C154.597 105.227 154.468 105.291 154.404 105.42Z" fill="#263238"/>
<path d="M158.984 107.678H158.404C158.274 107.678 158.21 107.613 158.21 107.548L158.404 104.968C158.404 104.903 158.533 104.839 158.662 104.839L159.242 104.774C159.371 104.774 159.436 104.839 159.436 104.903L159.242 107.484C159.242 107.613 159.113 107.678 158.984 107.678Z" fill="#263238"/>
<path d="M174.081 107.032H173.5C173.371 107.032 173.307 106.968 173.307 106.903L173.5 104.323C173.5 104.258 173.629 104.194 173.694 104.194H174.274C174.403 104.194 174.468 104.258 174.468 104.323L174.274 106.903C174.274 106.968 174.21 107.032 174.081 107.032Z" fill="#263238"/>
</g>
<path d="M161.732 95.4701C161.797 95.6636 163.41 98.2443 164.636 98.0507C165.023 97.9862 165.345 98.1798 165.603 98.4378C166.12 99.083 166.442 99.4701 166.765 99.9217C167.345 100.631 168.313 100.889 169.087 100.502C169.345 100.373 169.539 100.244 169.797 100.115C170.571 99.7281 170.958 98.8249 170.765 97.9217C170.507 96.954 170.184 96.0507 169.668 95.212C169.474 94.954 169.281 94.6314 169.023 94.4378C168.765 94.2443 165.926 93.4056 164.829 93.4701C163.861 93.5346 162.765 95.0185 161.732 95.4701Z" fill="#FFC3BD"/>
<path d="M165.023 93.4056C165.023 93.4056 147.861 88.2443 144.184 91.6637C141.99 93.7282 143.023 95.5992 144.248 96.825C145.152 97.7282 147.152 97.5346 148.442 97.4701L161.926 96.1153L165.023 93.4056Z" fill="#FFC3BD"/>
<path d="M155 90.6601C154.934 89.7451 154.142 88.9608 153.284 88.5033C152.426 88.1111 151.437 87.9804 150.513 87.8497C148.335 87.5882 146.091 87.3268 143.914 87C142.792 88.3725 142 90.3333 142 92.098C142.066 93.8627 142.726 95.6275 143.914 97C144.97 94.9739 146.355 92.8824 148.401 91.902C150.513 90.9216 152.756 90.2026 155 90.6601Z" fill="#CB8D00"/>
<defs>
<linearGradient id="paint0_linear" x1="163.5" y1="111" x2="123.5" y2="234" gradientUnits="userSpaceOnUse">
<stop stop-color="#2E6EE1"/>
<stop offset="1" stop-color="#0846B5"/>
</linearGradient>
<linearGradient id="paint1_linear" x1="164" y1="67" x2="164" y2="108" gradientUnits="userSpaceOnUse">
<stop stop-color="#EAA60B"/>
<stop offset="1" stop-color="#EAA60B"/>
</linearGradient>
<linearGradient id="paint2_linear" x1="166" y1="105" x2="166" y2="126" gradientUnits="userSpaceOnUse">
<stop stop-color="#F7AF0C"/>
<stop offset="1" stop-color="#D8990A"/>
</linearGradient>
</defs>
</svg>
