<svg width="264" height="274" viewBox="0 0 264 274" fill="none" xmlns="http://www.w3.org/2000/svg">
<g opacity="0.3">
<path d="M256.155 50.8774H4.10449V273.042H256.155V50.8774Z" fill="#EBEBEB"/>
<path d="M247.597 62.5691H12.7725V261.213H247.597V62.5691Z" fill="#F7FBFC"/>
<path d="M63.3386 261.213H38.667L61.8938 62.5691H86.4543L63.3386 261.213Z" fill="white"/>
<path d="M124.129 261.213H99.5684L122.684 62.5691H147.356L124.129 261.213Z" fill="white"/>
<path d="M202.7 261.213H190.364L213.591 62.5691H225.816L202.7 261.213Z" fill="white"/>
<path d="M145.8 261.213H133.575L156.691 62.5691H169.027L145.8 261.213Z" fill="white"/>
<path d="M91.5665 62.5691H79.8975V261.213H91.5665V62.5691Z" fill="#EBEBEB"/>
<path d="M91.5142 261.308H94.0703L94.0703 62.6636H91.5142L91.5142 261.308Z" fill="#E0E0E0"/>
<path d="M256.165 273.001H258.055V50.8362H256.165V273.001Z" fill="#E0E0E0"/>
</g>
<path d="M149.199 10.9287C148.968 10.9287 148.738 10.9372 148.515 10.9543C147.755 6.5196 143.884 3.14445 139.227 3.14445C137.1 3.14445 135.134 3.85366 133.554 5.04137C131.845 2.03364 128.615 0 124.915 0C119.429 0 114.986 4.44324 114.986 9.92893C114.986 10.2793 115.003 10.6211 115.037 10.9543C114.815 10.9372 114.584 10.9287 114.354 10.9287C108.868 10.9287 104.425 15.3719 104.425 20.8576C104.425 26.3433 108.868 30.7865 114.354 30.7865H149.19C154.676 30.7865 159.119 26.3433 159.119 20.8576C159.128 15.3719 154.685 10.9287 149.199 10.9287Z" fill="#AAD0E2"/>
<path d="M149.199 10.9287C148.968 10.9287 148.738 10.9372 148.515 10.9543C147.755 6.5196 143.884 3.14445 139.227 3.14445C137.1 3.14445 135.134 3.85366 133.554 5.04137C131.845 2.03364 128.615 0 124.915 0C119.429 0 114.986 4.44324 114.986 9.92893C114.986 10.2793 115.003 10.6211 115.037 10.9543C114.815 10.9372 114.584 10.9287 114.354 10.9287C108.868 10.9287 104.425 15.3719 104.425 20.8576C104.425 26.3433 108.868 30.7865 114.354 30.7865H149.19C154.676 30.7865 159.119 26.3433 159.119 20.8576C159.128 15.3719 154.685 10.9287 149.199 10.9287Z" fill="#D8E6FF"/>
<path d="M128.948 2.19603C128.025 1.90551 127.051 1.74316 126.034 1.74316C120.745 1.74316 116.456 6.0326 116.456 11.3218C116.456 11.655 116.473 11.9882 116.507 12.3129C116.293 12.2959 116.071 12.2873 115.849 12.2873C110.56 12.2873 106.271 16.5767 106.271 21.8659C106.271 23.6005 106.732 25.2325 107.544 26.6339C107.176 22.3102 107.834 14.0646 118.19 14.2611C118.088 11.4499 118.583 2.59763 128.948 2.19603Z" fill="white"/>
<path d="M119.164 30.778H149.199C154.684 30.778 159.128 26.3347 159.128 20.849C159.128 19.6784 158.923 18.5591 158.555 17.5166C152.027 30.3678 129.947 29.2314 119.164 30.778Z" fill="#CFDFFA"/>
<path d="M137.89 14.0392L134.597 10.656V12.3658H126.673V15.7127H134.597V17.3861L137.89 14.0392Z" fill="white"/>
<path d="M123.308 21.2938L126.6 24.677V22.9672H134.524V19.6203H126.6V17.9469L123.308 21.2938Z" fill="white"/>
<path d="M262.572 272.147H1.22793C0.865278 272.147 0.571289 272.441 0.571289 272.803C0.571289 273.166 0.865278 273.46 1.22793 273.46H262.572C262.934 273.46 263.228 273.166 263.228 272.803C263.228 272.441 262.934 272.147 262.572 272.147Z" fill="#CBCBCB"/>
<path d="M236.963 176.933H197.564V266.894H236.963V176.933Z" fill="#F2F7FF"/>
<path d="M263.229 176.933H236.963V266.894H263.229V176.933Z" fill="#D8E6FF"/>
<path d="M202.161 272.147H198.878V266.894H205.444L202.161 272.147Z" fill="#D8E6FF"/>
<path d="M200.848 272.147H197.564V266.894H204.131L200.848 272.147Z" fill="#F2F7FF"/>
<path d="M258.632 272.147H261.915V266.894H255.349L258.632 272.147Z" fill="#F2F7FF"/>
<path d="M259.945 272.147H263.229V266.894H256.662L259.945 272.147Z" fill="#D8E6FF"/>
<path d="M240.246 272.147H236.963V266.894H243.529L240.246 272.147Z" fill="#D8E6FF"/>
<path d="M228.427 272.147H225.144V266.894H231.71L228.427 272.147Z" fill="#D8E6FF"/>
<path d="M227.113 272.147H223.83V266.894H230.396L227.113 272.147Z" fill="#F2F7FF"/>
<path d="M233.68 272.147H236.963V266.894H230.396L233.68 272.147Z" fill="#F2F7FF"/>
<path d="M219.233 272.147H222.517V266.894H215.95L219.233 272.147Z" fill="#F2F7FF"/>
<path d="M220.547 272.147H223.83V266.894H217.264L220.547 272.147Z" fill="#D8E6FF"/>
<path d="M233.68 180.217H200.848V198.603H233.68V180.217Z" fill="#D8E6FF"/>
<path d="M232.366 197.289V181.53H202.161V197.289H232.366Z" fill="#F2F7FF"/>
<path d="M222.517 188.425H212.011V190.395H222.517V188.425Z" fill="#D8E6FF"/>
<path d="M222.517 183.5H212.011L210.697 181.53H223.83L222.517 183.5Z" fill="#D8E6FF"/>
<path d="M233.68 201.886H200.848V220.272H233.68V201.886Z" fill="#D8E6FF"/>
<path d="M232.366 218.959V203.199H202.161V218.959H232.366Z" fill="#F2F7FF"/>
<path d="M222.517 210.094H212.011V212.064H222.517V210.094Z" fill="#D8E6FF"/>
<path d="M222.517 205.169H212.011L210.697 203.199H223.83L222.517 205.169Z" fill="#D8E6FF"/>
<path d="M233.68 223.555H200.848V241.941H233.68V223.555Z" fill="#D8E6FF"/>
<path d="M232.366 240.628V224.868H202.161V240.628H232.366Z" fill="#F2F7FF"/>
<path d="M222.517 231.763H212.011V233.733H222.517V231.763Z" fill="#D8E6FF"/>
<path d="M222.517 226.838H212.011L210.697 224.868H223.83L222.517 226.838Z" fill="#D8E6FF"/>
<path d="M233.68 245.224H200.848V263.61H233.68V245.224Z" fill="#D8E6FF"/>
<path d="M232.366 262.297V246.538H202.161V262.297H232.366Z" fill="#F2F7FF"/>
<path d="M222.517 253.432H212.011V255.402H222.517V253.432Z" fill="#D8E6FF"/>
<path d="M222.517 248.508H212.011L210.697 246.538H223.83L222.517 248.508Z" fill="#D8E6FF"/>
<path d="M62.7554 152.441C56.9113 154.673 49.6225 161.634 49.0972 166.033C48.5719 170.433 46.0766 175.948 41.8741 180.479C36.7523 185.929 34.4541 199.259 35.7673 207.336C37.0806 215.413 39.6415 254.155 39.6415 254.155L40.4295 254.943C40.4295 254.943 44.7634 209.569 53.1027 199.85C62.0987 189.344 60.8511 180.217 60.4571 171.483C60.1288 162.684 62.7554 152.441 62.7554 152.441Z" fill="#D8E6FF"/>
<path d="M59.7353 187.637C49.4916 192.693 41.8746 200.31 41.5463 206.876C41.3493 210.488 41.4806 212.983 41.5463 214.822C41.6119 217.514 41.6776 218.893 40.9553 220.666C39.5107 224.212 39.7077 230.91 40.9553 233.339C41.5463 234.521 42.3342 235.309 42.9252 235.703C45.0265 222.045 48.441 205.235 53.1688 199.785C56.7804 195.582 58.7503 191.511 59.7353 187.637Z" fill="#38C092"/>
<path d="M55.4664 163.275C55.4664 163.275 41.2173 198.603 41.5456 214.756C41.5456 214.822 51.7236 172.403 55.4664 163.275Z" fill="#AEC4EB"/>
<path d="M62.2961 216.792C62.2961 216.792 45.88 224.212 46.3397 241.547C46.3397 241.547 44.2384 250.346 44.9607 254.811H45.486C45.289 235.637 61.4424 222.964 61.4424 222.964C61.4424 222.964 68.6655 225.591 79.1718 222.964L62.2961 216.792Z" fill="#D8E6FF"/>
<path d="M37.6713 254.746C37.6713 254.746 29.1349 227.167 13.2441 225.197C13.2441 225.197 22.0432 222.833 27.559 227.364C28.2813 227.955 28.4126 229.859 29.3319 230.516C31.3675 232.026 32.5494 232.551 32.5494 233.799C32.5494 235.046 32.1555 236.951 33.3374 238.264C34.5194 239.577 33.7314 241.022 34.7164 242.204C35.7013 243.386 36.161 242.992 36.161 244.436C36.161 245.881 38.1966 254.68 38.1966 254.68L37.6713 254.746Z" fill="#D8E6FF"/>
<path d="M57.1079 201.755C56.8453 202.083 56.5826 202.346 56.3199 202.674C44.2377 218.171 42.5961 254.352 42.5961 254.746L41.9395 254.68C41.9395 254.483 42.3334 246.078 44.0407 235.572C44.0407 235.506 44.1064 235.375 44.1064 235.243C45.945 224.212 49.2939 211.013 55.335 202.871C55.729 202.28 56.1886 201.755 56.5826 201.229L57.1079 201.755Z" fill="#38C092"/>
<path d="M55.2691 202.937C49.228 211.079 45.8791 224.343 44.0405 235.309C40.2976 228.94 41.4796 229.005 42.9898 224.54C44.5001 220.009 43.1212 214.69 44.1718 208.715C44.7628 205.3 49.8846 204.315 55.2691 202.937Z" fill="#AEC4EB"/>
<path d="M81.9947 184.616C76.9385 184.813 71.9481 192.693 66.0383 198.406C63.74 200.638 59.9972 201.82 56.32 202.74C55.9916 202.805 55.6633 202.937 55.335 203.002C49.9505 204.315 44.8287 205.366 44.2377 208.781C43.1871 214.756 44.6317 220.075 43.0558 224.606C41.5455 229.071 40.3636 229.071 44.1064 235.375C44.1721 235.506 44.2377 235.637 44.3691 235.769C44.3691 235.769 44.2377 235.769 44.1064 235.637C43.5811 235.44 42.4648 234.718 41.6112 233.076C40.4292 230.778 40.2322 224.212 41.6112 220.929C42.9245 217.645 41.8738 215.675 42.3335 206.942C42.7275 198.209 57.3706 186.717 74.4433 183.434C76.5446 182.975 81.9947 184.616 81.9947 184.616Z" fill="#D8E6FF"/>
<path d="M45.2881 206.745C46.3387 204.184 65.7097 190.723 65.7097 190.723C65.7097 190.723 55.5317 195.188 48.9653 201.361C47.7833 202.477 45.2881 206.745 45.2881 206.745Z" fill="#AEC4EB"/>
<path d="M3.3291 159.861C12.7848 160.977 32.484 169.054 33.1407 202.739C33.1407 202.739 25.458 185.076 19.5482 178.378C13.6384 171.68 3.3291 159.861 3.3291 159.861Z" fill="#AEC4EB"/>
<path d="M40.5608 254.811C40.5608 254.811 35.1763 192.693 3.3291 159.861C3.3291 159.861 11.7341 161.634 15.2143 168.857C18.6945 176.08 31.6304 179.954 36.2269 189.738C40.8234 199.522 35.5703 207.993 37.0805 215.413C38.5908 222.898 41.2831 226.182 40.5608 237.476C39.9041 248.836 40.5608 254.811 40.5608 254.811Z" fill="#AEC4EB"/>
<path d="M39.7074 254.155C39.7074 254.155 39.3134 220.929 13.9014 208.781C13.9014 208.781 22.6347 208.255 26.8372 213.574C30.9741 218.959 32.353 218.039 34.5199 220.6C39.3134 226.444 39.7074 254.155 39.7074 254.155Z" fill="#D8E6FF"/>
<path d="M51.8546 250.674H29.3317C28.6751 250.674 28.0184 251.003 27.6901 251.594C21.058 261.706 29.0691 270.045 30.9733 271.818C31.236 272.015 31.5643 272.147 31.8926 272.147H49.2937C49.622 272.147 49.9503 272.015 50.213 271.818C52.1172 270.045 60.1939 261.706 53.4962 251.594C53.1022 251.003 52.5112 250.674 51.8546 250.674Z" fill="#FFC082"/>
<path d="M53.4966 251.594C53.1683 251.068 52.643 250.806 52.052 250.74C58.5528 260.787 50.6074 269.06 48.6375 270.833C48.3748 271.03 48.0465 271.162 47.7182 271.162H30.3828C30.6455 271.424 30.8425 271.621 31.0395 271.818C31.3021 272.015 31.6304 272.147 31.9588 272.147H49.3598C49.6881 272.147 50.0164 272.015 50.2791 271.818C52.1177 270.045 60.1287 261.706 53.4966 251.594Z" fill="#FF8A72"/>
<path d="M111.281 107.658L90.7282 106.738L75.494 85.3975L69.7812 87.6957L83.1111 114.027C84.2931 116.457 86.657 118.033 89.3492 118.295L115.878 120.987L111.281 107.658Z" fill="#FFC3BD"/>
<path d="M75.559 85.3975L69.8462 87.6957C68.0733 85.8571 62.4262 85.8571 59.3399 85.3975C59.2743 85.2661 58.6833 84.4125 59.6683 84.0185L56.976 83.7559C56.4507 83.6902 56.0567 83.2962 56.1224 82.7709C56.1881 81.9829 56.5164 81.0636 57.8297 80.407C60.4562 79.028 69.9119 80.8009 70.3715 80.8666C70.1745 80.7353 68.2046 79.619 67.154 78.5684C66.0377 77.5177 67.154 76.6641 68.0076 76.8611C68.3359 76.9268 71.7505 78.24 73.7861 80.21C75.756 82.1142 76.0843 83.3619 75.559 85.3975Z" fill="#FFC3BD"/>
<path d="M56.7139 81.0636L66.7605 81.7859C61.0477 80.8666 56.7139 81.0636 56.7139 81.0636Z" fill="#FF847F"/>
<path d="M66.2356 83.2306C62.1644 82.2456 56.0576 82.2456 56.0576 82.2456L66.2356 83.2306Z" fill="#FF847F"/>
<path d="M59.5381 84.0185L64.8569 84.6094C62.69 83.8215 59.5381 84.0185 59.5381 84.0185Z" fill="#FF847F"/>
<path d="M70.4379 84.7408L70.6349 81.7859C70.7005 81.7859 70.1096 82.7709 70.4379 84.7408Z" fill="#FF847F"/>
<path d="M68.5342 81.9829C68.5342 81.9829 67.6149 82.9022 67.1553 85.1348L68.5342 81.9829Z" fill="#FF847F"/>
<path d="M71.8174 87.5644C73.656 87.236 75.1006 86.1198 75.1006 86.1198L71.8174 87.5644Z" fill="#FF847F"/>
<path d="M143.785 108.38H165.126L181.936 90.5193L187.846 94.7218L170.313 118.23C169.394 119.477 167.949 120.265 166.374 120.331L142.997 121.578L143.785 108.38Z" fill="#FFA49B"/>
<path d="M198.746 84.7409C199.008 84.8722 199.731 85.4632 199.271 85.9885C197.104 87.0391 194.149 88.4837 193.23 89.3374C191.851 90.6507 187.845 94.7218 187.845 94.7218L181.936 90.5193C181.936 90.5193 181.936 86.9734 182.724 85.2662C183.511 83.5589 187.78 80.2757 187.78 80.2757C188.502 79.6847 190.472 80.407 189.75 81.2607C189.356 81.786 187.845 84.3469 187.78 84.5439C188.042 84.4125 196.053 80.21 197.892 80.2757C198.877 80.3414 199.862 81.6546 200.519 82.8366C200.781 83.2962 200.584 83.8216 200.125 84.0842L198.746 84.7409Z" fill="#FFA49B"/>
<path d="M191.523 84.8066L199.403 80.998C199.337 81.0637 193.887 82.968 191.523 84.8066Z" fill="#FF847F"/>
<path d="M192.64 85.6603L200.191 82.1801C200.191 82.1801 195.463 83.6903 192.64 85.6603Z" fill="#FF847F"/>
<path d="M194.084 86.6452L198.746 84.741L200.191 84.0187C200.191 84.0187 197.302 84.8723 194.084 86.6452Z" fill="#FF847F"/>
<path d="M187.124 90.5194C187.584 87.8272 187.255 86.2512 187.255 86.2512L187.124 90.5194Z" fill="#FF847F"/>
<path d="M190.342 88.8121C189.948 87.3018 188.766 86.1199 188.766 86.1199L190.342 88.8121Z" fill="#FF847F"/>
<path d="M186.73 94.1309L183.381 91.57C183.381 91.5044 184.563 93.146 186.73 94.1309Z" fill="#FF847F"/>
<path d="M150.943 266.499L150.089 256.322L141.225 257.11L142.144 269.914L150.943 266.499Z" fill="#FFC3BD"/>
<path d="M150.549 261.903L150.089 256.322L141.225 257.11L141.684 263.413L150.549 261.903Z" fill="#FF847F"/>
<path d="M141.947 272.147H161.777C162.696 272.147 163.419 271.424 163.419 270.505C163.419 269.848 163.025 269.192 162.368 268.995L151.928 265.186C151.928 265.186 147.988 266.696 146.609 266.762C145.558 266.828 142.997 266.171 141.684 265.843C141.29 265.711 140.83 266.105 140.896 266.499L141.356 271.556C141.356 271.884 141.618 272.147 141.947 272.147Z" fill="#0E1738"/>
<path d="M150.746 266.368C150.68 265.646 150.483 262.888 150.943 262.954C151.403 263.019 152.979 263.676 153.176 264.53C153.373 265.383 153.044 266.762 153.044 266.762L150.746 266.368Z" fill="#0E1738"/>
<path d="M153.635 267.879C153.569 267.879 153.438 267.813 153.438 267.747C153.372 267.616 153.438 267.485 153.569 267.419C154.62 267.025 154.685 266.303 154.685 266.237C154.685 266.106 154.817 265.974 154.948 266.04C155.079 266.04 155.211 266.171 155.145 266.303C155.145 266.368 155.079 267.353 153.766 267.879C153.701 267.879 153.635 267.879 153.635 267.879Z" fill="white"/>
<path d="M161.449 271.096H141.75C141.684 271.096 141.618 271.03 141.618 270.965C141.618 270.899 141.684 270.833 141.75 270.833H161.449C161.514 270.833 161.58 270.899 161.58 270.965C161.646 271.03 161.58 271.096 161.449 271.096Z" fill="white"/>
<path d="M155.407 268.469C155.342 268.469 155.21 268.404 155.21 268.338C155.145 268.207 155.21 268.076 155.342 268.01C155.342 268.01 156.13 267.616 156.261 266.828C156.261 266.697 156.392 266.565 156.524 266.631C156.655 266.631 156.721 266.762 156.721 266.894C156.589 268.01 155.539 268.469 155.539 268.469C155.473 268.469 155.407 268.469 155.407 268.469Z" fill="white"/>
<path d="M122.97 165.836H144.508L152.125 259.933L139.189 261.64L122.97 165.836Z" fill="#2E6DDE"/>
<path d="M139.846 259.014C139.715 259.014 139.583 258.882 139.518 258.751C139.518 258.554 139.583 258.423 139.78 258.357L150.549 256.387C150.746 256.387 150.878 256.453 150.943 256.65C150.943 256.847 150.878 256.978 150.681 257.044L139.846 259.014C139.912 259.014 139.912 259.014 139.846 259.014Z" fill="white"/>
<path d="M150.549 252.447C150.352 252.447 150.221 252.316 150.221 252.119L141.225 178.706C141.225 178.509 141.356 178.378 141.553 178.378C141.75 178.378 141.881 178.509 141.881 178.706L150.877 252.119C150.877 252.25 150.746 252.447 150.549 252.447Z" fill="white"/>
<path d="M143.983 179.035C143.917 179.035 143.786 178.969 143.72 178.903C143.589 178.706 140.108 174.372 140.108 171.746C140.108 171.549 140.24 171.418 140.437 171.418C140.634 171.418 140.765 171.549 140.765 171.746C140.765 174.11 144.245 178.444 144.245 178.509C144.377 178.641 144.311 178.838 144.18 178.969C144.114 179.035 144.048 179.035 143.983 179.035Z" fill="white"/>
<path d="M103.73 266.499L104.584 256.322L113.449 257.11L112.595 269.914L103.73 266.499Z" fill="#FFC3BD"/>
<path d="M104.124 261.903L104.584 256.322L113.448 257.11L113.054 263.413L104.124 261.903Z" fill="#FF847F"/>
<path d="M112.726 272.147H92.8955C91.9762 272.147 91.2539 271.424 91.2539 270.505C91.2539 269.848 91.6479 269.192 92.3045 268.995L102.745 265.186C102.745 265.186 106.685 266.696 108.064 266.762C109.115 266.828 111.675 266.171 112.989 265.843C113.383 265.711 113.842 266.105 113.777 266.499L113.317 271.556C113.317 271.884 113.054 272.147 112.726 272.147Z" fill="#0E1738"/>
<path d="M103.927 266.368C103.993 265.646 104.19 262.888 103.73 262.954C103.27 263.019 101.695 263.676 101.498 264.53C101.301 265.383 101.629 266.762 101.629 266.762L103.927 266.368Z" fill="#0E1738"/>
<path d="M101.038 267.879C101.103 267.879 101.235 267.813 101.235 267.747C101.3 267.616 101.235 267.485 101.103 267.419C100.053 267.025 99.9869 266.303 99.9869 266.237C99.9869 266.106 99.8556 265.974 99.7242 266.04C99.5929 266.04 99.4616 266.171 99.5272 266.303C99.5272 266.368 99.5929 267.353 100.906 267.879C100.972 267.879 101.038 267.879 101.038 267.879Z" fill="white"/>
<path d="M93.2235 271.096H112.923C112.988 271.096 113.054 271.03 113.054 270.965C113.054 270.899 112.988 270.833 112.923 270.833H93.2235C93.1578 270.833 93.0922 270.899 93.0922 270.965C93.0265 271.03 93.0922 271.096 93.2235 271.096Z" fill="white"/>
<path d="M99.2645 268.469C99.3301 268.469 99.4615 268.404 99.4615 268.338C99.5271 268.207 99.4614 268.076 99.3301 268.01C99.3301 268.01 98.5421 267.616 98.4108 266.828C98.4108 266.697 98.2795 266.565 98.1482 266.631C98.0168 266.631 97.9512 266.762 97.9512 266.894C98.0825 268.01 99.1331 268.469 99.1331 268.469C99.1988 268.469 99.2645 268.469 99.2645 268.469Z" fill="white"/>
<path d="M131.703 165.836H110.231L102.548 259.933L115.549 261.64L131.703 165.836Z" fill="#2E6DDE"/>
<path d="M114.827 259.014C114.958 259.014 115.089 258.882 115.155 258.751C115.155 258.554 115.089 258.423 114.892 258.357L104.123 256.387C103.926 256.387 103.795 256.453 103.729 256.65C103.729 256.847 103.795 256.978 103.992 257.044L114.827 259.014C114.761 259.014 114.761 259.014 114.827 259.014Z" fill="white"/>
<path d="M104.123 252.447C104.32 252.447 104.452 252.316 104.452 252.119L113.448 178.706C113.448 178.509 113.316 178.378 113.119 178.378C112.922 178.378 112.791 178.509 112.791 178.706L103.795 252.119C103.795 252.25 103.926 252.447 104.123 252.447Z" fill="white"/>
<path d="M110.69 179.035C110.755 179.035 110.887 178.969 110.952 178.903C111.084 178.706 114.564 174.372 114.564 171.746C114.564 171.549 114.433 171.418 114.236 171.418C114.039 171.418 113.907 171.549 113.907 171.746C113.907 174.11 110.427 178.444 110.427 178.509C110.296 178.641 110.361 178.838 110.493 178.969C110.558 179.035 110.624 179.035 110.69 179.035Z" fill="white"/>
<path d="M126.976 165.836V192.102L128.158 184.025L129.668 183.369C131.178 182.778 132.097 181.333 132.097 179.691V165.836H126.976Z" fill="#084BC3"/>
<path d="M110.23 165.836H144.507C144.507 165.836 142.669 170.498 127.172 170.498C114.958 170.498 110.23 165.836 110.23 165.836Z" fill="#084BC3"/>
<path d="M121.591 108.117H134.133L143.851 108.38C143.851 108.38 146.149 132.938 144.508 166.23C139.846 169.645 116.469 169.907 110.165 165.836L109.246 107.789L121.591 108.117Z" fill="#222222"/>
<path d="M137.088 79.8817C137.875 80.2757 138.401 80.4727 138.401 80.4727C135.643 75.2852 130.258 75.5478 130.258 75.5478L131.9 74.6285C129.864 74.9569 120.606 74.6942 118.702 80.013C118.57 80.407 118.439 80.7353 118.439 81.1293C115.944 81.0636 114.499 83.8215 114.63 86.5794C114.827 86.3168 114.959 86.1198 115.156 85.9228C115.287 89.206 117.454 93.2115 119.686 95.5098L133.279 92.6206C138.86 89.0747 138.532 84.3469 137.744 81.4576C137.547 80.801 137.35 80.3413 137.088 79.8817Z" fill="#0E1738"/>
<path d="M121.591 98.005V109.562C121.591 113.042 124.414 115.8 127.829 115.8C131.309 115.8 134.067 112.976 134.067 109.562V98.005H121.591Z" fill="#FFC3BD"/>
<path d="M137.087 87.8927L138.269 93.4085C139.254 98.0706 136.299 102.667 131.637 103.652C126.975 104.637 122.379 101.682 121.394 97.02L120.212 91.5042C119.227 86.842 122.182 82.2455 126.844 81.2606C131.506 80.2756 136.102 83.2305 137.087 87.8927Z" fill="#FFC3BD"/>
<path d="M134.133 102.667C132.031 103.521 128.157 103.849 123.823 100.632C123.823 100.632 127.238 106.41 134.133 104.243V102.667Z" fill="#FF847F"/>
<path d="M120.409 92.5548C119.358 92.0952 118.373 92.4235 117.848 93.0802C116.534 94.7218 119.424 99.0556 121.525 98.005L120.409 92.5548Z" fill="#FFC3BD"/>
<path d="M121.196 96.4948C120.934 96.4291 120.671 96.3634 120.408 96.1664C120.277 96.1008 120.211 95.9695 120.146 95.7725C120.08 95.5755 120.146 95.3785 120.211 95.2472C120.277 95.1815 120.277 95.1158 120.277 95.0502C120.277 94.9845 120.343 94.9845 120.343 94.9188C120.343 94.7875 120.343 94.7218 120.343 94.5905C120.343 94.3935 120.277 94.1309 120.146 93.9339C120.08 93.8682 120.014 93.7369 120.014 93.7369C119.949 93.7369 119.817 93.6712 119.752 93.6712C119.489 93.6712 119.292 93.7369 119.095 93.8025C118.701 93.9995 118.635 94.5905 118.635 95.1158C118.504 94.8532 118.438 94.5905 118.438 94.3278C118.438 94.0652 118.57 93.7369 118.832 93.5399C119.095 93.3429 119.423 93.2772 119.686 93.2772C119.817 93.2772 119.949 93.2772 120.211 93.3429C120.408 93.4742 120.474 93.6055 120.605 93.7369C120.737 93.9995 120.802 94.3279 120.868 94.5905C120.868 94.7218 120.868 94.9188 120.802 95.0502C120.802 95.1158 120.737 95.1815 120.737 95.2472C120.671 95.3128 120.671 95.3785 120.605 95.4441C120.277 95.7725 120.802 96.2321 121.196 96.4948Z" fill="#FF847F"/>
<path d="M135.905 82.0486C131.112 74.4972 120.015 83.8872 120.015 83.8872C117.388 85.2662 120.409 92.5549 120.409 92.5549L121.591 95.1158C121.722 95.4441 122.05 95.5754 122.444 95.5098C122.773 95.4441 123.035 95.1158 123.035 94.7218L122.773 91.1759C122.773 91.1759 125.465 89.3373 125.071 85.3318C128.879 83.6902 132.491 87.9584 137.35 85.9885C137.284 86.0541 137.481 83.3619 135.905 82.0486Z" fill="#0E1738"/>
<path d="M121.59 108.117C121.59 108.117 116.075 159.007 115.878 172.14C115.878 172.14 104.518 172.206 100.906 168.791L106.816 123.548C106.028 121.053 93.8145 120.134 93.8145 120.134L95.1277 106.935L121.59 108.117Z" fill="url(#paint0_linear)"/>
<path d="M94.0114 118.098L93.8145 120.134C93.8145 120.134 105.962 121.119 106.816 123.548C106.816 123.548 107.998 117.704 108.72 115.472C108.72 115.472 105.109 120.134 94.0114 118.098Z" fill="#D49506"/>
<path d="M121.591 106.476L118.308 107.986C118.308 107.986 116.994 115.734 115.878 117.573C115.878 117.573 119.424 115.406 120.737 116.325C120.671 116.325 121.919 109.168 121.591 106.476Z" fill="#CB8D00"/>
<path d="M134.066 108.117C138.794 115.866 140.042 171.746 140.042 171.746C140.042 171.746 146.28 170.301 150.023 167.478C150.023 167.478 150.876 134.843 148.316 125.124C150.22 123.417 155.801 121.841 160.398 121.578L162.236 108.314L134.066 108.117Z" fill="url(#paint1_linear)"/>
<path d="M160.595 120.528C149.826 121.644 146.806 120.856 146.806 120.856C148.185 123.614 148.382 125.19 148.382 125.19C150.286 123.483 155.867 121.907 160.464 121.644L160.595 120.528Z" fill="#D49506"/>
<path d="M134.066 108.117C134.066 108.117 135.511 111.795 136.43 117.113C136.43 117.113 139.845 116.26 141.158 118.295C141.158 118.295 138.729 111.204 136.43 108.117L134.132 106.476L134.066 108.117Z" fill="#CB8D00"/>
<path d="M257.45 127.094L213.193 130.968C211.157 131.165 209.384 129.655 209.187 127.62L206.495 97.0857C206.298 95.0501 207.808 93.2772 209.844 93.0802L254.101 89.206C256.137 89.009 257.91 90.5193 258.107 92.5549L260.799 123.089C260.996 125.124 259.486 126.897 257.45 127.094Z" fill="#084BC3"/>
<path d="M212.996 128.67C212.208 128.736 211.551 128.145 211.485 127.423L208.793 96.8887C208.727 96.1008 209.318 95.4441 210.041 95.3785L254.298 91.5043C255.086 91.4386 255.743 92.0296 255.809 92.7519L258.501 123.286C258.567 124.074 257.976 124.73 257.253 124.796L212.996 128.67Z" fill="#E8E9FD"/>
<path d="M251.967 99.6897L213.896 103.021L213.958 103.74L252.03 100.409L251.967 99.6897Z" fill="#A4C7FF"/>
<path d="M259.88 102.273L238.276 104.177C236.766 104.309 235.518 103.718 235.059 102.602L234.402 100.894C234.008 99.8436 232.695 99.187 231.185 99.3183L216.213 100.632C214.177 100.829 212.405 102.273 212.208 103.915L209.253 128.408C209.056 130.049 210.566 131.231 212.602 131.034L256.859 127.16C258.895 126.963 260.668 125.518 260.865 123.877L263.163 104.9C263.426 103.258 261.915 102.142 259.88 102.273Z" fill="url(#paint2_linear)"/>
<path d="M241.822 112.123L221.138 113.961L221.4 111.598L242.085 109.825L241.822 112.123Z" fill="#084BC3"/>
<path d="M51.3958 44.8826C50.3452 64.7133 38.263 77.3865 38.263 77.3865L18.2354 71.1484C18.2354 71.1484 33.5351 55.1919 31.2369 31.0931L46.1427 35.7553C46.1427 35.6896 51.4615 38.1192 51.3958 44.8826Z" fill="#E8E9FD"/>
<path d="M51.3957 44.8827C50.9361 43.3067 46.3396 41.2711 46.3396 41.2711C47.7185 40.4175 47.7185 38.7759 46.1426 35.7553C46.1426 35.6897 51.4614 38.1192 51.3957 44.8827Z" fill="#CFD7FE"/>
<path d="M39.1166 43.1754C39.051 43.1754 38.9853 43.1754 38.9853 43.1754L34.7171 41.6652C34.4545 41.5995 34.3231 41.2712 34.3888 41.0085C34.4545 40.7458 34.7828 40.6145 35.0454 40.6802L39.3136 42.1248C39.5763 42.1905 39.7076 42.5188 39.6419 42.7814C39.5106 43.0441 39.3136 43.1754 39.1166 43.1754Z" fill="#9CAFCD"/>
<path d="M37.9343 69.1784C37.8686 69.1784 37.803 69.1784 37.803 69.1784L32.0902 67.2085C31.8275 67.1428 31.6962 66.8145 31.7619 66.5518C31.8275 66.2892 32.1558 66.1579 32.4185 66.2235L38.1313 68.1934C38.3939 68.2591 38.5253 68.5874 38.4596 68.8501C38.3283 69.0471 38.1313 69.1784 37.9343 69.1784Z" fill="#9CAFCD"/>
<path d="M46.0114 50.7267C45.9457 50.7267 45.8801 50.7267 45.8801 50.7267L34.7171 46.7869C34.4545 46.7212 34.3231 46.3929 34.3888 46.1302C34.4545 45.8676 34.7828 45.7362 35.0454 45.8019L46.2084 49.7417C46.471 49.8074 46.6024 50.1357 46.5367 50.3984C46.4054 50.5954 46.2084 50.7267 46.0114 50.7267Z" fill="#9CAFCD"/>
<path d="M44.8297 54.8636C44.7641 54.8636 44.6984 54.8636 44.6984 54.8636L33.5355 50.9237C33.2728 50.858 33.1415 50.5297 33.2072 50.2671C33.2728 50.0044 33.6011 49.8731 33.8638 49.9387L45.0267 53.8786C45.2894 53.9443 45.4207 54.2726 45.3551 54.5352C45.2237 54.7322 45.0267 54.8636 44.8297 54.8636Z" fill="#9CAFCD"/>
<path d="M43.3851 59.5914C43.3195 59.5914 43.2538 59.5914 43.2538 59.5914L31.8939 55.5859C31.6312 55.5203 31.4999 55.1919 31.5656 54.9293C31.6312 54.6666 31.9595 54.5353 32.2222 54.601L43.5821 58.6065C43.8448 58.6721 43.9761 59.0005 43.9104 59.2631C43.7791 59.4601 43.5821 59.5914 43.3851 59.5914Z" fill="#9CAFCD"/>
<path d="M37.8032 61.5614C37.7376 61.5614 37.6719 61.5614 37.6719 61.5614L30.6458 59.0661C30.3832 59.0005 30.2519 58.6722 30.3175 58.4095C30.3832 58.1469 30.7115 58.0155 30.9742 58.0812L38.0002 60.5764C38.2629 60.6421 38.3942 60.9704 38.3285 61.2331C38.1972 61.4301 38.0002 61.5614 37.8032 61.5614Z" fill="#9CAFCD"/>
<path d="M256.662 56.8992C256.071 57.2275 246.09 62.415 230.134 62.415C204.59 62.415 199.14 37.3313 198.943 36.2806C201.833 49.0852 215.097 63.8596 236.175 56.8992C236.109 56.8992 245.893 61.1674 256.662 56.8992Z" fill="#CFD7FE"/>
<path d="M256.662 56.8992C235.584 63.8596 222.386 49.0195 219.431 36.2806H198.878C201.767 49.0852 214.966 63.9253 236.11 56.8992C236.11 56.8992 245.959 61.1674 256.662 56.8992Z" fill="#E8E9FD"/>
<path d="M212.471 44.8827H206.101C205.839 44.8827 205.576 44.6857 205.576 44.3573C205.576 44.0947 205.773 43.832 206.101 43.832H212.471C212.734 43.832 212.996 44.029 212.996 44.3573C212.931 44.6857 212.734 44.8827 212.471 44.8827Z" fill="#9CAFCD"/>
<path d="M214.44 50.1358C214.177 50.1358 213.98 49.9388 213.98 49.6761C213.98 49.4135 214.177 49.1508 214.44 49.1508L222.32 48.6255C222.582 48.6255 222.845 48.8225 222.845 49.0851C222.845 49.3478 222.648 49.6105 222.385 49.6105L214.44 50.1358Z" fill="#9CAFCD"/>
<path d="M213.587 53.5503C213.324 53.5503 213.062 53.3533 213.062 53.0907C213.062 52.828 213.259 52.5653 213.587 52.5653C217.395 52.5653 221.204 52.3027 225.012 51.7774C225.275 51.7117 225.538 51.9087 225.538 52.1714C225.603 52.434 225.406 52.6967 225.144 52.6967C221.27 53.2877 217.395 53.5503 213.587 53.5503Z" fill="#9CAFCD"/>
<path d="M219.825 57.1619C219.103 57.1619 218.315 57.1619 217.592 57.0962C217.33 57.0962 217.133 56.8335 217.133 56.5709C217.133 56.3082 217.395 56.1112 217.658 56.1112C221.401 56.3082 225.144 55.9799 228.821 55.1919C229.084 55.1263 229.346 55.3233 229.412 55.5859C229.478 55.8486 229.281 56.1112 229.018 56.1769C225.997 56.8335 222.911 57.1619 219.825 57.1619Z" fill="#9CAFCD"/>
<defs>
<linearGradient id="paint0_linear" x1="117.5" y1="87.5" x2="107.702" y2="172.14" gradientUnits="userSpaceOnUse">
<stop stop-color="#F7AF0C"/>
<stop offset="1" stop-color="#CC8F05"/>
</linearGradient>
<linearGradient id="paint1_linear" x1="148.151" y1="108.117" x2="148.151" y2="171.746" gradientUnits="userSpaceOnUse">
<stop stop-color="#EBA60A"/>
<stop offset="1" stop-color="#D49506"/>
</linearGradient>
<linearGradient id="paint2_linear" x1="214" y1="127.5" x2="277" y2="104.5" gradientUnits="userSpaceOnUse">
<stop stop-color="#5C95FD"/>
<stop offset="1" stop-color="#2E6DDE"/>
</linearGradient>
</defs>
</svg>
