<svg width="244" height="210" viewBox="0 0 244 210" fill="none" xmlns="http://www.w3.org/2000/svg">
<path d="M226.714 210H1.58772C1.19154 210 0.864258 209.64 0.864258 209.182C0.864258 208.724 1.18293 208.364 1.58772 208.364H226.714C227.11 208.364 227.437 208.724 227.437 209.182C227.437 209.64 227.11 210 226.714 210Z" fill="#E0E0E0"/>
<path d="M154.249 121.399L235.244 121.399C239.662 121.399 243.244 117.817 243.244 113.399V38C243.244 33.5817 239.662 30 235.244 30L154.249 30C149.831 30 146.249 33.5817 146.249 38V113.399C146.249 117.817 149.831 121.399 154.249 121.399Z" fill="#E6F6FF"/>
<path d="M34 60H48C52.4183 60 56 56.4183 56 52V38C56 33.5817 52.4183 30 48 30L34 30C29.5817 30 26 33.5817 26 38L26 52C26 56.4183 29.5817 60 34 60Z" fill="#E6F6FF" fill-opacity="0.29"/>
<path d="M16 98.5C16 94.3579 12.6421 91 8.5 91C4.35786 91 0.999999 94.3579 0.999999 98.5C0.999999 102.642 4.35786 106 8.5 106C12.6421 106 16 102.642 16 98.5Z" fill="#E6F6FF"/>
<path d="M5 15L14 15C15.6569 15 17 13.6569 17 12V3C17 1.34314 15.6569 -9.53674e-07 14 -9.53674e-07L5 -9.53674e-07C3.34314 -9.53674e-07 2 1.34314 2 3L2 12C2 13.6569 3.34314 15 5 15Z" fill="#F8FCFF"/>
<path d="M103 29.5C103 25.3579 99.6421 22 95.5 22C91.3579 22 88 25.3579 88 29.5C88 33.6421 91.3579 37 95.5 37C99.6421 37 103 33.6421 103 29.5Z" fill="#F8FCFF"/>
<path d="M8.75711 186.684H54.3115C58.7298 186.684 62.3115 183.102 62.3115 178.684L62.3115 139.658C62.3115 135.24 58.7298 131.658 54.3115 131.658H8.75712C4.33884 131.658 0.757118 135.24 0.757118 139.658L0.757118 178.684C0.757118 183.102 4.33884 186.684 8.75711 186.684Z" fill="#E6F6FF"/>
<path d="M135.21 92.2123V85.2767C135.21 82.1286 137.768 79.5708 140.916 79.5708H201.664C204.812 79.5708 207.37 82.1286 207.37 85.2767V207.954H50.2412V92.2123H135.21Z" fill="white"/>
<path d="M134.708 92.2123V85.2767C134.708 82.1286 137.266 79.5708 140.414 79.5708H201.162C204.31 79.5708 206.868 82.1286 206.868 85.2767V207.954H49.7393V92.2123H134.708Z" fill="#0F4599"/>
<path d="M201.606 97.0034V207.954H56.0459V96.4623L201.606 97.0034Z" fill="#BAE2FF"/>
<path d="M193.607 97.0034V207.954H48.0576V96.4623L193.607 97.0034Z" fill="#1480CC"/>
<path d="M42.1838 92.2124H185.982C188.934 92.2124 191.108 94.2095 191.531 96.9739V207.954H34.589V99.7875C34.5595 95.8032 38.1503 92.2124 42.1838 92.2124Z" fill="white"/>
<path d="M94.9335 133.407L178.978 133.642L179.156 69.7656L95.1123 69.5302L94.9335 133.407Z" fill="#EBF3FF"/>
<path d="M97.1349 130.342L176.88 130.566L177.044 71.8441L97.2994 71.6208L97.1349 130.342Z" fill="#3397FF"/>
<path d="M170.164 125.838L118.909 125.69L146.927 98.8135L170.164 125.838Z" fill="#E3EEFF"/>
<path d="M146.859 125.769L103.799 125.651L127.164 103.437L146.859 125.769Z" fill="#E3EEFF"/>
<path d="M135.116 97.0306C137.433 94.7139 137.433 90.9579 135.116 88.6413C132.8 86.3247 129.043 86.3247 126.727 88.6413C124.41 90.9579 124.41 94.7139 126.727 97.0306C129.044 99.3472 132.8 99.3472 135.116 97.0306Z" fill="#E3EEFF"/>
<path d="M83.7382 125.754L161.653 126.004L161.87 58.2413L83.9553 57.9917L83.7382 125.754Z" fill="#EBF3FF"/>
<path d="M86.0118 122.502L159.5 122.739L159.701 60.4465L86.2126 60.2096L86.0118 122.502Z" fill="#3397FF"/>
<path d="M152.475 69.0543H123.208V71.622H152.475V69.0543Z" fill="#CCE5FF"/>
<path d="M92.9324 78.5625L152.48 78.5625V75.9948H92.9324V78.5625Z" fill="#CCE5FF"/>
<path d="M92.9324 85.6395L152.48 85.6395V83.0719H92.9324V85.6395Z" fill="#CCE5FF"/>
<path d="M41.4955 92.2124H185.294C188.245 92.2124 190.42 94.2095 190.843 96.9739V208.347H33.9007V99.7875C33.8614 95.8032 37.462 92.2124 41.4955 92.2124Z" fill="#2E6DDE"/>
<path d="M191.536 207.946H207.375V207.306H191.536V207.946Z" fill="white"/>
<path opacity="0.5" d="M207.371 139.148L201.606 142.916H193.981L191.532 144.795V143.005H34.5898V139.148H207.371Z" fill="black"/>
<path d="M31.3903 140.868L209.602 140.868V120.73L31.3903 120.73V140.868Z" fill="#61B3F2"/>
<path d="M31.3938 140.868L193.56 140.868V120.73L31.3938 120.73V140.868Z" fill="#2E97E6"/>
<path d="M111.48 120.742V140.87H97.3926L107.27 120.742H111.48Z" fill="#0E0E0E"/>
<path d="M106.61 130.787C106.61 133.571 107.092 136.09 107.919 137.91C108.716 139.769 109.827 140.871 111.057 140.871H114.795V120.753H111.057C108.598 120.743 106.61 125.259 106.61 130.787ZM110.152 134.103C109.453 133.886 108.903 132.509 108.903 130.787C108.903 129.105 109.444 127.738 110.152 127.511C110.85 127.728 111.401 129.105 111.401 130.787C111.401 132.509 110.85 133.876 110.152 134.103Z" fill="#2475B3"/>
<path d="M108.519 130.786C108.519 133.57 109.03 136.089 109.886 137.909C110.722 139.768 111.883 140.87 113.162 140.87H114.795V120.752H113.162C110.594 120.742 108.519 125.257 108.519 130.786ZM110.309 130.786C110.309 129.104 111.371 127.737 112.099 127.51C112.837 127.727 113.408 129.104 113.408 130.786C113.408 132.508 112.837 133.885 112.099 134.102C111.371 133.875 110.309 132.508 110.309 130.786Z" fill="#3F9EE6"/>
<path d="M108.4 130.787C108.4 133.571 108.882 136.09 109.709 137.91C110.506 139.769 111.617 140.871 112.847 140.871H116.585V120.752H112.847C110.388 120.743 108.4 125.258 108.4 130.787ZM111.942 134.102C111.244 133.886 110.693 132.509 110.693 130.787C110.693 129.105 111.234 127.737 111.942 127.511C112.64 127.727 113.191 129.105 113.191 130.787C113.191 132.509 112.65 133.876 111.942 134.102Z" fill="#2475B3"/>
<path d="M110.309 130.786C110.309 133.57 110.82 136.089 111.676 137.909C112.512 139.768 113.673 140.87 114.952 140.87H116.585V120.752H114.952C112.384 120.742 110.309 125.257 110.309 130.786ZM112.099 130.786C112.099 129.104 112.67 127.737 113.407 127.51C114.145 127.727 114.716 129.104 114.716 130.786C114.716 132.508 114.145 133.885 113.407 134.102C112.67 133.875 112.099 132.508 112.099 130.786Z" fill="#61B3F2"/>
<path d="M112.827 140.998C112.67 140.998 111.755 140.958 110.791 140.034C109.699 138.981 108.391 136.61 108.391 131.268C108.391 126.182 109.581 123.565 110.575 122.267C111.676 120.83 112.768 120.634 112.818 120.624C112.886 120.614 112.955 120.663 112.965 120.732C112.975 120.801 112.926 120.87 112.857 120.88C112.847 120.88 111.794 121.086 110.762 122.444C109.797 123.713 108.646 126.281 108.646 131.268C108.646 136.502 109.906 138.814 110.958 139.837C111.913 140.762 112.827 140.742 112.837 140.742C112.906 140.742 112.975 140.791 112.975 140.87C112.975 140.939 112.926 141.008 112.847 141.008C112.847 140.998 112.837 140.998 112.827 140.998Z" fill="#1A5380"/>
<path d="M113.409 133.826C113.586 133.866 113.713 133.915 113.891 133.954C113.851 133.993 113.851 133.993 113.891 133.993C121.013 136.118 126.276 142.661 126.276 150.491V167.304H131.933V150.491C131.933 139.611 124.279 130.501 114.068 128.199C113.851 128.11 113.625 128.071 113.409 128.022C111.766 127.687 111.638 133.561 113.409 133.826Z" fill="#E6E6E6"/>
<path d="M106.699 127.737V133.364C99.3996 134.298 93.5067 139.719 91.9425 146.792C91.8933 146.969 91.854 147.097 91.854 147.235C91.7654 147.629 91.7261 147.983 91.6769 148.386C91.5884 149.094 91.549 149.803 91.549 150.511V167.324H85.9316V150.511C85.9316 138.617 95.0709 128.878 106.699 127.737Z" fill="#E6E6E6"/>
<path d="M113.27 132.173C126.541 134.505 128.253 148.957 128.253 148.957V167.324H126.266V150.511C126.266 142.523 120.786 135.833 113.408 133.846C112.847 133.659 112.493 132.016 112.493 132.016C112.493 132.016 112.837 132.085 113.27 132.173Z" fill="#999999"/>
<path d="M106.699 132.173V133.374C99.3994 134.308 93.5066 139.729 91.9424 146.802C92.267 142.661 95.6906 133.639 106.699 132.173Z" fill="#808080"/>
<path d="M113.409 133.826C113.586 133.865 113.713 133.915 113.891 133.954C113.763 133.6 113.035 132.793 112.946 131.121C112.858 129.399 113.448 128.228 114.068 128.209C113.851 128.12 113.625 128.081 113.409 128.032C111.766 127.687 111.638 133.56 113.409 133.826Z" fill="#666666"/>
<path d="M136.783 162.731H81.0225V208.319H136.783V162.731Z" fill="#F7AF0C"/>
<path d="M109.749 173.984C109.572 173.935 109.395 173.935 109.218 173.935C105.41 173.935 102.321 177.014 102.321 180.851C102.321 183.664 104.004 186.074 106.394 187.186V198.923C106.394 200.487 107.673 201.776 109.227 201.776C109.355 201.776 109.532 201.776 109.67 201.726H109.798C111.077 201.461 112.051 200.3 112.051 198.913V187.176C114.441 186.104 116.124 183.645 116.124 180.841C116.114 177.201 113.33 174.259 109.749 173.984Z" fill="#CC840A"/>
<path d="M109.749 173.984C106.168 174.21 103.335 177.201 103.335 180.86C103.335 183.674 105.017 186.084 107.408 187.196V198.932C107.408 200.32 108.382 201.48 109.661 201.746H109.789C111.067 201.48 112.041 200.32 112.041 198.932V187.196C114.432 186.124 116.114 183.664 116.114 180.86C116.114 177.201 113.33 174.259 109.749 173.984Z" fill="#803D00"/>
<path d="M98.7206 208.308H81.0225V162.72H85.9315C85.9315 162.73 84.6329 196.365 98.7206 208.308Z" fill="#E6950B"/>
<path d="M124.82 208.308C129.051 199.267 128.254 174.948 128.254 162.72H133.871V208.308H124.82Z" fill="#F7E4AD"/>
</svg>
